<?xml version="1.0" encoding="utf-8" standalone="no"?>
<!DOCTYPE svg PUBLIC "-//W3C//DTD SVG 1.1//EN"
  "http://www.w3.org/Graphics/SVG/1.1/DTD/svg11.dtd">
<!-- Created with matplotlib (https://matplotlib.org/) -->
<svg height="720pt" version="1.1" viewBox="0 0 1440 720" width="1440pt" xmlns="http://www.w3.org/2000/svg" xmlns:xlink="http://www.w3.org/1999/xlink">
 <defs>
  <style type="text/css">
*{stroke-linecap:butt;stroke-linejoin:round;}
  </style>
 </defs>
 <g id="figure_1">
  <g id="patch_1">
   <path d="M 0 720 
L 1440 720 
L 1440 0 
L 0 0 
z
" style="fill:#ffffff;"/>
  </g>
  <g id="axes_1">
   <g id="patch_2">
    <path d="M 119.99 612.232 
L 1407.6 612.232 
L 1407.6 32.4 
L 119.99 32.4 
z
" style="fill:#ffffff;"/>
   </g>
   <g id="matplotlib.axis_1">
    <g id="xtick_1">
     <g id="line2d_1">
      <defs>
       <path d="M 0 0 
L 0 3.5 
" id="m633591df90" style="stroke:#000000;stroke-width:0.8;"/>
      </defs>
      <g>
       <use style="stroke:#000000;stroke-width:0.8;" x="177.932157" xlink:href="#m633591df90" y="612.232"/>
      </g>
     </g>
     <g id="text_1">
      <!-- 0.0 -->
      <defs>
       <path d="M 31.78125 66.40625 
Q 24.171875 66.40625 20.328125 58.90625 
Q 16.5 51.421875 16.5 36.375 
Q 16.5 21.390625 20.328125 13.890625 
Q 24.171875 6.390625 31.78125 6.390625 
Q 39.453125 6.390625 43.28125 13.890625 
Q 47.125 21.390625 47.125 36.375 
Q 47.125 51.421875 43.28125 58.90625 
Q 39.453125 66.40625 31.78125 66.40625 
z
M 31.78125 74.21875 
Q 44.046875 74.21875 50.515625 64.515625 
Q 56.984375 54.828125 56.984375 36.375 
Q 56.984375 17.96875 50.515625 8.265625 
Q 44.046875 -1.421875 31.78125 -1.421875 
Q 19.53125 -1.421875 13.0625 8.265625 
Q 6.59375 17.96875 6.59375 36.375 
Q 6.59375 54.828125 13.0625 64.515625 
Q 19.53125 74.21875 31.78125 74.21875 
z
" id="DejaVuSans-48"/>
       <path d="M 10.6875 12.40625 
L 21 12.40625 
L 21 0 
L 10.6875 0 
z
" id="DejaVuSans-46"/>
      </defs>
      <g transform="translate(154.07747 642.027312)scale(0.3 -0.3)">
       <use xlink:href="#DejaVuSans-48"/>
       <use x="63.623047" xlink:href="#DejaVuSans-46"/>
       <use x="95.410156" xlink:href="#DejaVuSans-48"/>
      </g>
     </g>
    </g>
    <g id="xtick_2">
     <g id="line2d_2">
      <g>
       <use style="stroke:#000000;stroke-width:0.8;" x="338.963923" xlink:href="#m633591df90" y="612.232"/>
      </g>
     </g>
     <g id="text_2">
      <!-- 0.2 -->
      <defs>
       <path d="M 19.1875 8.296875 
L 53.609375 8.296875 
L 53.609375 0 
L 7.328125 0 
L 7.328125 8.296875 
Q 12.9375 14.109375 22.625 23.890625 
Q 32.328125 33.6875 34.8125 36.53125 
Q 39.546875 41.84375 41.421875 45.53125 
Q 43.3125 49.21875 43.3125 52.78125 
Q 43.3125 58.59375 39.234375 62.25 
Q 35.15625 65.921875 28.609375 65.921875 
Q 23.96875 65.921875 18.8125 64.3125 
Q 13.671875 62.703125 7.8125 59.421875 
L 7.8125 69.390625 
Q 13.765625 71.78125 18.9375 73 
Q 24.125 74.21875 28.421875 74.21875 
Q 39.75 74.21875 46.484375 68.546875 
Q 53.21875 62.890625 53.21875 53.421875 
Q 53.21875 48.921875 51.53125 44.890625 
Q 49.859375 40.875 45.40625 35.40625 
Q 44.1875 33.984375 37.640625 27.21875 
Q 31.109375 20.453125 19.1875 8.296875 
z
" id="DejaVuSans-50"/>
      </defs>
      <g transform="translate(315.109236 642.027312)scale(0.3 -0.3)">
       <use xlink:href="#DejaVuSans-48"/>
       <use x="63.623047" xlink:href="#DejaVuSans-46"/>
       <use x="95.410156" xlink:href="#DejaVuSans-50"/>
      </g>
     </g>
    </g>
    <g id="xtick_3">
     <g id="line2d_3">
      <g>
       <use style="stroke:#000000;stroke-width:0.8;" x="499.995689" xlink:href="#m633591df90" y="612.232"/>
      </g>
     </g>
     <g id="text_3">
      <!-- 0.4 -->
      <defs>
       <path d="M 37.796875 64.3125 
L 12.890625 25.390625 
L 37.796875 25.390625 
z
M 35.203125 72.90625 
L 47.609375 72.90625 
L 47.609375 25.390625 
L 58.015625 25.390625 
L 58.015625 17.1875 
L 47.609375 17.1875 
L 47.609375 0 
L 37.796875 0 
L 37.796875 17.1875 
L 4.890625 17.1875 
L 4.890625 26.703125 
z
" id="DejaVuSans-52"/>
      </defs>
      <g transform="translate(476.141001 642.027312)scale(0.3 -0.3)">
       <use xlink:href="#DejaVuSans-48"/>
       <use x="63.623047" xlink:href="#DejaVuSans-46"/>
       <use x="95.410156" xlink:href="#DejaVuSans-52"/>
      </g>
     </g>
    </g>
    <g id="xtick_4">
     <g id="line2d_4">
      <g>
       <use style="stroke:#000000;stroke-width:0.8;" x="661.027455" xlink:href="#m633591df90" y="612.232"/>
      </g>
     </g>
     <g id="text_4">
      <!-- 0.6 -->
      <defs>
       <path d="M 33.015625 40.375 
Q 26.375 40.375 22.484375 35.828125 
Q 18.609375 31.296875 18.609375 23.390625 
Q 18.609375 15.53125 22.484375 10.953125 
Q 26.375 6.390625 33.015625 6.390625 
Q 39.65625 6.390625 43.53125 10.953125 
Q 47.40625 15.53125 47.40625 23.390625 
Q 47.40625 31.296875 43.53125 35.828125 
Q 39.65625 40.375 33.015625 40.375 
z
M 52.59375 71.296875 
L 52.59375 62.3125 
Q 48.875 64.0625 45.09375 64.984375 
Q 41.3125 65.921875 37.59375 65.921875 
Q 27.828125 65.921875 22.671875 59.328125 
Q 17.53125 52.734375 16.796875 39.40625 
Q 19.671875 43.65625 24.015625 45.921875 
Q 28.375 48.1875 33.59375 48.1875 
Q 44.578125 48.1875 50.953125 41.515625 
Q 57.328125 34.859375 57.328125 23.390625 
Q 57.328125 12.15625 50.6875 5.359375 
Q 44.046875 -1.421875 33.015625 -1.421875 
Q 20.359375 -1.421875 13.671875 8.265625 
Q 6.984375 17.96875 6.984375 36.375 
Q 6.984375 53.65625 15.1875 63.9375 
Q 23.390625 74.21875 37.203125 74.21875 
Q 40.921875 74.21875 44.703125 73.484375 
Q 48.484375 72.75 52.59375 71.296875 
z
" id="DejaVuSans-54"/>
      </defs>
      <g transform="translate(637.172767 642.027312)scale(0.3 -0.3)">
       <use xlink:href="#DejaVuSans-48"/>
       <use x="63.623047" xlink:href="#DejaVuSans-46"/>
       <use x="95.410156" xlink:href="#DejaVuSans-54"/>
      </g>
     </g>
    </g>
    <g id="xtick_5">
     <g id="line2d_5">
      <g>
       <use style="stroke:#000000;stroke-width:0.8;" x="822.059221" xlink:href="#m633591df90" y="612.232"/>
      </g>
     </g>
     <g id="text_5">
      <!-- 0.8 -->
      <defs>
       <path d="M 31.78125 34.625 
Q 24.75 34.625 20.71875 30.859375 
Q 16.703125 27.09375 16.703125 20.515625 
Q 16.703125 13.921875 20.71875 10.15625 
Q 24.75 6.390625 31.78125 6.390625 
Q 38.8125 6.390625 42.859375 10.171875 
Q 46.921875 13.96875 46.921875 20.515625 
Q 46.921875 27.09375 42.890625 30.859375 
Q 38.875 34.625 31.78125 34.625 
z
M 21.921875 38.8125 
Q 15.578125 40.375 12.03125 44.71875 
Q 8.5 49.078125 8.5 55.328125 
Q 8.5 64.0625 14.71875 69.140625 
Q 20.953125 74.21875 31.78125 74.21875 
Q 42.671875 74.21875 48.875 69.140625 
Q 55.078125 64.0625 55.078125 55.328125 
Q 55.078125 49.078125 51.53125 44.71875 
Q 48 40.375 41.703125 38.8125 
Q 48.828125 37.15625 52.796875 32.3125 
Q 56.78125 27.484375 56.78125 20.515625 
Q 56.78125 9.90625 50.3125 4.234375 
Q 43.84375 -1.421875 31.78125 -1.421875 
Q 19.734375 -1.421875 13.25 4.234375 
Q 6.78125 9.90625 6.78125 20.515625 
Q 6.78125 27.484375 10.78125 32.3125 
Q 14.796875 37.15625 21.921875 38.8125 
z
M 18.3125 54.390625 
Q 18.3125 48.734375 21.84375 45.5625 
Q 25.390625 42.390625 31.78125 42.390625 
Q 38.140625 42.390625 41.71875 45.5625 
Q 45.3125 48.734375 45.3125 54.390625 
Q 45.3125 60.0625 41.71875 63.234375 
Q 38.140625 66.40625 31.78125 66.40625 
Q 25.390625 66.40625 21.84375 63.234375 
Q 18.3125 60.0625 18.3125 54.390625 
z
" id="DejaVuSans-56"/>
      </defs>
      <g transform="translate(798.204533 642.027312)scale(0.3 -0.3)">
       <use xlink:href="#DejaVuSans-48"/>
       <use x="63.623047" xlink:href="#DejaVuSans-46"/>
       <use x="95.410156" xlink:href="#DejaVuSans-56"/>
      </g>
     </g>
    </g>
    <g id="xtick_6">
     <g id="line2d_6">
      <g>
       <use style="stroke:#000000;stroke-width:0.8;" x="983.090987" xlink:href="#m633591df90" y="612.232"/>
      </g>
     </g>
     <g id="text_6">
      <!-- 1.0 -->
      <defs>
       <path d="M 12.40625 8.296875 
L 28.515625 8.296875 
L 28.515625 63.921875 
L 10.984375 60.40625 
L 10.984375 69.390625 
L 28.421875 72.90625 
L 38.28125 72.90625 
L 38.28125 8.296875 
L 54.390625 8.296875 
L 54.390625 0 
L 12.40625 0 
z
" id="DejaVuSans-49"/>
      </defs>
      <g transform="translate(959.236299 642.027312)scale(0.3 -0.3)">
       <use xlink:href="#DejaVuSans-49"/>
       <use x="63.623047" xlink:href="#DejaVuSans-46"/>
       <use x="95.410156" xlink:href="#DejaVuSans-48"/>
      </g>
     </g>
    </g>
    <g id="xtick_7">
     <g id="line2d_7">
      <g>
       <use style="stroke:#000000;stroke-width:0.8;" x="1144.122753" xlink:href="#m633591df90" y="612.232"/>
      </g>
     </g>
     <g id="text_7">
      <!-- 1.2 -->
      <g transform="translate(1120.268065 642.027312)scale(0.3 -0.3)">
       <use xlink:href="#DejaVuSans-49"/>
       <use x="63.623047" xlink:href="#DejaVuSans-46"/>
       <use x="95.410156" xlink:href="#DejaVuSans-50"/>
      </g>
     </g>
    </g>
    <g id="xtick_8">
     <g id="line2d_8">
      <g>
       <use style="stroke:#000000;stroke-width:0.8;" x="1305.154518" xlink:href="#m633591df90" y="612.232"/>
      </g>
     </g>
     <g id="text_8">
      <!-- 1.4 -->
      <g transform="translate(1281.299831 642.027312)scale(0.3 -0.3)">
       <use xlink:href="#DejaVuSans-49"/>
       <use x="63.623047" xlink:href="#DejaVuSans-46"/>
       <use x="95.410156" xlink:href="#DejaVuSans-52"/>
      </g>
     </g>
    </g>
    <g id="text_9">
     <!-- spatial frequency $\mu m^{-1}$ -->
     <defs>
      <path d="M 44.28125 53.078125 
L 44.28125 44.578125 
Q 40.484375 46.53125 36.375 47.5 
Q 32.28125 48.484375 27.875 48.484375 
Q 21.1875 48.484375 17.84375 46.4375 
Q 14.5 44.390625 14.5 40.28125 
Q 14.5 37.15625 16.890625 35.375 
Q 19.28125 33.59375 26.515625 31.984375 
L 29.59375 31.296875 
Q 39.15625 29.25 43.1875 25.515625 
Q 47.21875 21.78125 47.21875 15.09375 
Q 47.21875 7.46875 41.1875 3.015625 
Q 35.15625 -1.421875 24.609375 -1.421875 
Q 20.21875 -1.421875 15.453125 -0.5625 
Q 10.6875 0.296875 5.421875 2 
L 5.421875 11.28125 
Q 10.40625 8.6875 15.234375 7.390625 
Q 20.0625 6.109375 24.8125 6.109375 
Q 31.15625 6.109375 34.5625 8.28125 
Q 37.984375 10.453125 37.984375 14.40625 
Q 37.984375 18.0625 35.515625 20.015625 
Q 33.0625 21.96875 24.703125 23.78125 
L 21.578125 24.515625 
Q 13.234375 26.265625 9.515625 29.90625 
Q 5.8125 33.546875 5.8125 39.890625 
Q 5.8125 47.609375 11.28125 51.796875 
Q 16.75 56 26.8125 56 
Q 31.78125 56 36.171875 55.265625 
Q 40.578125 54.546875 44.28125 53.078125 
z
" id="DejaVuSans-115"/>
      <path d="M 18.109375 8.203125 
L 18.109375 -20.796875 
L 9.078125 -20.796875 
L 9.078125 54.6875 
L 18.109375 54.6875 
L 18.109375 46.390625 
Q 20.953125 51.265625 25.265625 53.625 
Q 29.59375 56 35.59375 56 
Q 45.5625 56 51.78125 48.09375 
Q 58.015625 40.1875 58.015625 27.296875 
Q 58.015625 14.40625 51.78125 6.484375 
Q 45.5625 -1.421875 35.59375 -1.421875 
Q 29.59375 -1.421875 25.265625 0.953125 
Q 20.953125 3.328125 18.109375 8.203125 
z
M 48.6875 27.296875 
Q 48.6875 37.203125 44.609375 42.84375 
Q 40.53125 48.484375 33.40625 48.484375 
Q 26.265625 48.484375 22.1875 42.84375 
Q 18.109375 37.203125 18.109375 27.296875 
Q 18.109375 17.390625 22.1875 11.75 
Q 26.265625 6.109375 33.40625 6.109375 
Q 40.53125 6.109375 44.609375 11.75 
Q 48.6875 17.390625 48.6875 27.296875 
z
" id="DejaVuSans-112"/>
      <path d="M 34.28125 27.484375 
Q 23.390625 27.484375 19.1875 25 
Q 14.984375 22.515625 14.984375 16.5 
Q 14.984375 11.71875 18.140625 8.90625 
Q 21.296875 6.109375 26.703125 6.109375 
Q 34.1875 6.109375 38.703125 11.40625 
Q 43.21875 16.703125 43.21875 25.484375 
L 43.21875 27.484375 
z
M 52.203125 31.203125 
L 52.203125 0 
L 43.21875 0 
L 43.21875 8.296875 
Q 40.140625 3.328125 35.546875 0.953125 
Q 30.953125 -1.421875 24.3125 -1.421875 
Q 15.921875 -1.421875 10.953125 3.296875 
Q 6 8.015625 6 15.921875 
Q 6 25.140625 12.171875 29.828125 
Q 18.359375 34.515625 30.609375 34.515625 
L 43.21875 34.515625 
L 43.21875 35.40625 
Q 43.21875 41.609375 39.140625 45 
Q 35.0625 48.390625 27.6875 48.390625 
Q 23 48.390625 18.546875 47.265625 
Q 14.109375 46.140625 10.015625 43.890625 
L 10.015625 52.203125 
Q 14.9375 54.109375 19.578125 55.046875 
Q 24.21875 56 28.609375 56 
Q 40.484375 56 46.34375 49.84375 
Q 52.203125 43.703125 52.203125 31.203125 
z
" id="DejaVuSans-97"/>
      <path d="M 18.3125 70.21875 
L 18.3125 54.6875 
L 36.8125 54.6875 
L 36.8125 47.703125 
L 18.3125 47.703125 
L 18.3125 18.015625 
Q 18.3125 11.328125 20.140625 9.421875 
Q 21.96875 7.515625 27.59375 7.515625 
L 36.8125 7.515625 
L 36.8125 0 
L 27.59375 0 
Q 17.1875 0 13.234375 3.875 
Q 9.28125 7.765625 9.28125 18.015625 
L 9.28125 47.703125 
L 2.6875 47.703125 
L 2.6875 54.6875 
L 9.28125 54.6875 
L 9.28125 70.21875 
z
" id="DejaVuSans-116"/>
      <path d="M 9.421875 54.6875 
L 18.40625 54.6875 
L 18.40625 0 
L 9.421875 0 
z
M 9.421875 75.984375 
L 18.40625 75.984375 
L 18.40625 64.59375 
L 9.421875 64.59375 
z
" id="DejaVuSans-105"/>
      <path d="M 9.421875 75.984375 
L 18.40625 75.984375 
L 18.40625 0 
L 9.421875 0 
z
" id="DejaVuSans-108"/>
      <path id="DejaVuSans-32"/>
      <path d="M 37.109375 75.984375 
L 37.109375 68.5 
L 28.515625 68.5 
Q 23.6875 68.5 21.796875 66.546875 
Q 19.921875 64.59375 19.921875 59.515625 
L 19.921875 54.6875 
L 34.71875 54.6875 
L 34.71875 47.703125 
L 19.921875 47.703125 
L 19.921875 0 
L 10.890625 0 
L 10.890625 47.703125 
L 2.296875 47.703125 
L 2.296875 54.6875 
L 10.890625 54.6875 
L 10.890625 58.5 
Q 10.890625 67.625 15.140625 71.796875 
Q 19.390625 75.984375 28.609375 75.984375 
z
" id="DejaVuSans-102"/>
      <path d="M 41.109375 46.296875 
Q 39.59375 47.171875 37.8125 47.578125 
Q 36.03125 48 33.890625 48 
Q 26.265625 48 22.1875 43.046875 
Q 18.109375 38.09375 18.109375 28.8125 
L 18.109375 0 
L 9.078125 0 
L 9.078125 54.6875 
L 18.109375 54.6875 
L 18.109375 46.1875 
Q 20.953125 51.171875 25.484375 53.578125 
Q 30.03125 56 36.53125 56 
Q 37.453125 56 38.578125 55.875 
Q 39.703125 55.765625 41.0625 55.515625 
z
" id="DejaVuSans-114"/>
      <path d="M 56.203125 29.59375 
L 56.203125 25.203125 
L 14.890625 25.203125 
Q 15.484375 15.921875 20.484375 11.0625 
Q 25.484375 6.203125 34.421875 6.203125 
Q 39.59375 6.203125 44.453125 7.46875 
Q 49.3125 8.734375 54.109375 11.28125 
L 54.109375 2.78125 
Q 49.265625 0.734375 44.1875 -0.34375 
Q 39.109375 -1.421875 33.890625 -1.421875 
Q 20.796875 -1.421875 13.15625 6.1875 
Q 5.515625 13.8125 5.515625 26.8125 
Q 5.515625 40.234375 12.765625 48.109375 
Q 20.015625 56 32.328125 56 
Q 43.359375 56 49.78125 48.890625 
Q 56.203125 41.796875 56.203125 29.59375 
z
M 47.21875 32.234375 
Q 47.125 39.59375 43.09375 43.984375 
Q 39.0625 48.390625 32.421875 48.390625 
Q 24.90625 48.390625 20.390625 44.140625 
Q 15.875 39.890625 15.1875 32.171875 
z
" id="DejaVuSans-101"/>
      <path d="M 14.796875 27.296875 
Q 14.796875 17.390625 18.875 11.75 
Q 22.953125 6.109375 30.078125 6.109375 
Q 37.203125 6.109375 41.296875 11.75 
Q 45.40625 17.390625 45.40625 27.296875 
Q 45.40625 37.203125 41.296875 42.84375 
Q 37.203125 48.484375 30.078125 48.484375 
Q 22.953125 48.484375 18.875 42.84375 
Q 14.796875 37.203125 14.796875 27.296875 
z
M 45.40625 8.203125 
Q 42.578125 3.328125 38.25 0.953125 
Q 33.9375 -1.421875 27.875 -1.421875 
Q 17.96875 -1.421875 11.734375 6.484375 
Q 5.515625 14.40625 5.515625 27.296875 
Q 5.515625 40.1875 11.734375 48.09375 
Q 17.96875 56 27.875 56 
Q 33.9375 56 38.25 53.625 
Q 42.578125 51.265625 45.40625 46.390625 
L 45.40625 54.6875 
L 54.390625 54.6875 
L 54.390625 -20.796875 
L 45.40625 -20.796875 
z
" id="DejaVuSans-113"/>
      <path d="M 8.5 21.578125 
L 8.5 54.6875 
L 17.484375 54.6875 
L 17.484375 21.921875 
Q 17.484375 14.15625 20.5 10.265625 
Q 23.53125 6.390625 29.59375 6.390625 
Q 36.859375 6.390625 41.078125 11.03125 
Q 45.3125 15.671875 45.3125 23.6875 
L 45.3125 54.6875 
L 54.296875 54.6875 
L 54.296875 0 
L 45.3125 0 
L 45.3125 8.40625 
Q 42.046875 3.421875 37.71875 1 
Q 33.40625 -1.421875 27.6875 -1.421875 
Q 18.265625 -1.421875 13.375 4.4375 
Q 8.5 10.296875 8.5 21.578125 
z
M 31.109375 56 
z
" id="DejaVuSans-117"/>
      <path d="M 54.890625 33.015625 
L 54.890625 0 
L 45.90625 0 
L 45.90625 32.71875 
Q 45.90625 40.484375 42.875 44.328125 
Q 39.84375 48.1875 33.796875 48.1875 
Q 26.515625 48.1875 22.3125 43.546875 
Q 18.109375 38.921875 18.109375 30.90625 
L 18.109375 0 
L 9.078125 0 
L 9.078125 54.6875 
L 18.109375 54.6875 
L 18.109375 46.1875 
Q 21.34375 51.125 25.703125 53.5625 
Q 30.078125 56 35.796875 56 
Q 45.21875 56 50.046875 50.171875 
Q 54.890625 44.34375 54.890625 33.015625 
z
" id="DejaVuSans-110"/>
      <path d="M 48.78125 52.59375 
L 48.78125 44.1875 
Q 44.96875 46.296875 41.140625 47.34375 
Q 37.3125 48.390625 33.40625 48.390625 
Q 24.65625 48.390625 19.8125 42.84375 
Q 14.984375 37.3125 14.984375 27.296875 
Q 14.984375 17.28125 19.8125 11.734375 
Q 24.65625 6.203125 33.40625 6.203125 
Q 37.3125 6.203125 41.140625 7.25 
Q 44.96875 8.296875 48.78125 10.40625 
L 48.78125 2.09375 
Q 45.015625 0.34375 40.984375 -0.53125 
Q 36.96875 -1.421875 32.421875 -1.421875 
Q 20.0625 -1.421875 12.78125 6.34375 
Q 5.515625 14.109375 5.515625 27.296875 
Q 5.515625 40.671875 12.859375 48.328125 
Q 20.21875 56 33.015625 56 
Q 37.15625 56 41.109375 55.140625 
Q 45.0625 54.296875 48.78125 52.59375 
z
" id="DejaVuSans-99"/>
      <path d="M 32.171875 -5.078125 
Q 28.375 -14.84375 24.75 -17.8125 
Q 21.140625 -20.796875 15.09375 -20.796875 
L 7.90625 -20.796875 
L 7.90625 -13.28125 
L 13.1875 -13.28125 
Q 16.890625 -13.28125 18.9375 -11.515625 
Q 21 -9.765625 23.484375 -3.21875 
L 25.09375 0.875 
L 2.984375 54.6875 
L 12.5 54.6875 
L 29.59375 11.921875 
L 46.6875 54.6875 
L 56.203125 54.6875 
z
" id="DejaVuSans-121"/>
      <path d="M -1.3125 -20.796875 
L 13.375 54.6875 
L 22.40625 54.6875 
L 15.765625 20.65625 
Q 15.578125 19.625 15.421875 18.359375 
Q 15.28125 17.09375 15.28125 15.828125 
Q 15.28125 11.28125 18.140625 8.828125 
Q 21 6.390625 26.3125 6.390625 
Q 33.546875 6.390625 37.984375 10.484375 
Q 42.4375 14.59375 44 22.796875 
L 50.203125 54.6875 
L 59.1875 54.6875 
L 51.03125 12.640625 
Q 50.828125 11.71875 50.75 11.03125 
Q 50.6875 10.359375 50.6875 9.8125 
Q 50.6875 8.296875 51.296875 7.59375 
Q 51.90625 6.890625 53.21875 6.890625 
Q 53.71875 6.890625 54.5625 7.125 
Q 55.421875 7.375 56.984375 8.015625 
L 55.609375 0.78125 
Q 53.46875 -0.296875 51.515625 -0.859375 
Q 49.5625 -1.421875 47.703125 -1.421875 
Q 44.484375 -1.421875 42.65625 0.625 
Q 40.828125 2.6875 40.828125 6.296875 
Q 38.09375 2.390625 34.296875 0.484375 
Q 30.515625 -1.421875 25.390625 -1.421875 
Q 20.84375 -1.421875 17.453125 0.671875 
Q 14.0625 2.78125 12.984375 6.203125 
L 7.71875 -20.796875 
z
" id="DejaVuSans-Oblique-956"/>
      <path d="M 89.796875 33.015625 
L 83.40625 0 
L 74.421875 0 
L 80.71875 32.71875 
Q 81.109375 34.8125 81.296875 36.328125 
Q 81.5 37.84375 81.5 38.921875 
Q 81.5 43.3125 79.046875 45.75 
Q 76.609375 48.1875 72.21875 48.1875 
Q 65.671875 48.1875 60.546875 43.28125 
Q 55.421875 38.375 53.90625 30.515625 
L 47.90625 0 
L 38.921875 0 
L 45.3125 32.71875 
Q 45.703125 34.515625 45.890625 36.046875 
Q 46.09375 37.59375 46.09375 38.8125 
Q 46.09375 43.265625 43.65625 45.71875 
Q 41.21875 48.1875 36.921875 48.1875 
Q 30.28125 48.1875 25.140625 43.28125 
Q 20.015625 38.375 18.5 30.515625 
L 12.5 0 
L 3.515625 0 
L 14.203125 54.6875 
L 23.1875 54.6875 
L 21.484375 46.1875 
Q 25.140625 50.984375 30.046875 53.484375 
Q 34.96875 56 40.578125 56 
Q 46.53125 56 50.359375 52.875 
Q 54.203125 49.75 54.984375 44.1875 
Q 59.078125 49.953125 64.46875 52.96875 
Q 69.875 56 75.875 56 
Q 82.90625 56 86.734375 51.953125 
Q 90.578125 47.90625 90.578125 40.484375 
Q 90.578125 38.875 90.375 36.9375 
Q 90.1875 35.015625 89.796875 33.015625 
z
" id="DejaVuSans-Oblique-109"/>
      <path d="M 10.59375 35.5 
L 73.1875 35.5 
L 73.1875 27.203125 
L 10.59375 27.203125 
z
" id="DejaVuSans-8722"/>
     </defs>
     <g transform="translate(587.995 679.266375)scale(0.3 -0.3)">
      <use transform="translate(0 0.684375)" xlink:href="#DejaVuSans-115"/>
      <use transform="translate(52.099609 0.684375)" xlink:href="#DejaVuSans-112"/>
      <use transform="translate(115.576172 0.684375)" xlink:href="#DejaVuSans-97"/>
      <use transform="translate(176.855469 0.684375)" xlink:href="#DejaVuSans-116"/>
      <use transform="translate(216.064453 0.684375)" xlink:href="#DejaVuSans-105"/>
      <use transform="translate(243.847656 0.684375)" xlink:href="#DejaVuSans-97"/>
      <use transform="translate(305.126953 0.684375)" xlink:href="#DejaVuSans-108"/>
      <use transform="translate(332.910156 0.684375)" xlink:href="#DejaVuSans-32"/>
      <use transform="translate(364.697266 0.684375)" xlink:href="#DejaVuSans-102"/>
      <use transform="translate(399.902344 0.684375)" xlink:href="#DejaVuSans-114"/>
      <use transform="translate(441.015625 0.684375)" xlink:href="#DejaVuSans-101"/>
      <use transform="translate(502.539062 0.684375)" xlink:href="#DejaVuSans-113"/>
      <use transform="translate(566.015625 0.684375)" xlink:href="#DejaVuSans-117"/>
      <use transform="translate(629.394531 0.684375)" xlink:href="#DejaVuSans-101"/>
      <use transform="translate(690.917969 0.684375)" xlink:href="#DejaVuSans-110"/>
      <use transform="translate(754.296875 0.684375)" xlink:href="#DejaVuSans-99"/>
      <use transform="translate(809.277344 0.684375)" xlink:href="#DejaVuSans-121"/>
      <use transform="translate(868.457031 0.684375)" xlink:href="#DejaVuSans-32"/>
      <use transform="translate(900.244141 0.684375)" xlink:href="#DejaVuSans-Oblique-956"/>
      <use transform="translate(963.867188 0.684375)" xlink:href="#DejaVuSans-Oblique-109"/>
      <use transform="translate(1065.929193 38.965625)scale(0.7)" xlink:href="#DejaVuSans-8722"/>
      <use transform="translate(1124.581536 38.965625)scale(0.7)" xlink:href="#DejaVuSans-49"/>
     </g>
    </g>
   </g>
   <g id="matplotlib.axis_2">
    <g id="ytick_1">
     <g id="line2d_9">
      <defs>
       <path d="M 0 0 
L -3.5 0 
" id="ma31d2965f2" style="stroke:#000000;stroke-width:0.8;"/>
      </defs>
      <g>
       <use style="stroke:#000000;stroke-width:0.8;" x="119.99" xlink:href="#ma31d2965f2" y="585.876"/>
      </g>
     </g>
     <g id="text_10">
      <!-- 0.0 -->
      <g transform="translate(65.280625 597.273656)scale(0.3 -0.3)">
       <use xlink:href="#DejaVuSans-48"/>
       <use x="63.623047" xlink:href="#DejaVuSans-46"/>
       <use x="95.410156" xlink:href="#DejaVuSans-48"/>
      </g>
     </g>
    </g>
    <g id="ytick_2">
     <g id="line2d_10">
      <g>
       <use style="stroke:#000000;stroke-width:0.8;" x="119.99" xlink:href="#ma31d2965f2" y="480.384842"/>
      </g>
     </g>
     <g id="text_11">
      <!-- 0.2 -->
      <g transform="translate(65.280625 491.782498)scale(0.3 -0.3)">
       <use xlink:href="#DejaVuSans-48"/>
       <use x="63.623047" xlink:href="#DejaVuSans-46"/>
       <use x="95.410156" xlink:href="#DejaVuSans-50"/>
      </g>
     </g>
    </g>
    <g id="ytick_3">
     <g id="line2d_11">
      <g>
       <use style="stroke:#000000;stroke-width:0.8;" x="119.99" xlink:href="#ma31d2965f2" y="374.893684"/>
      </g>
     </g>
     <g id="text_12">
      <!-- 0.4 -->
      <g transform="translate(65.280625 386.291341)scale(0.3 -0.3)">
       <use xlink:href="#DejaVuSans-48"/>
       <use x="63.623047" xlink:href="#DejaVuSans-46"/>
       <use x="95.410156" xlink:href="#DejaVuSans-52"/>
      </g>
     </g>
    </g>
    <g id="ytick_4">
     <g id="line2d_12">
      <g>
       <use style="stroke:#000000;stroke-width:0.8;" x="119.99" xlink:href="#ma31d2965f2" y="269.402527"/>
      </g>
     </g>
     <g id="text_13">
      <!-- 0.6 -->
      <g transform="translate(65.280625 280.800183)scale(0.3 -0.3)">
       <use xlink:href="#DejaVuSans-48"/>
       <use x="63.623047" xlink:href="#DejaVuSans-46"/>
       <use x="95.410156" xlink:href="#DejaVuSans-54"/>
      </g>
     </g>
    </g>
    <g id="ytick_5">
     <g id="line2d_13">
      <g>
       <use style="stroke:#000000;stroke-width:0.8;" x="119.99" xlink:href="#ma31d2965f2" y="163.911369"/>
      </g>
     </g>
     <g id="text_14">
      <!-- 0.8 -->
      <g transform="translate(65.280625 175.309025)scale(0.3 -0.3)">
       <use xlink:href="#DejaVuSans-48"/>
       <use x="63.623047" xlink:href="#DejaVuSans-46"/>
       <use x="95.410156" xlink:href="#DejaVuSans-56"/>
      </g>
     </g>
    </g>
    <g id="ytick_6">
     <g id="line2d_14">
      <g>
       <use style="stroke:#000000;stroke-width:0.8;" x="119.99" xlink:href="#ma31d2965f2" y="58.420211"/>
      </g>
     </g>
     <g id="text_15">
      <!-- 1.0 -->
      <g transform="translate(65.280625 69.817867)scale(0.3 -0.3)">
       <use xlink:href="#DejaVuSans-49"/>
       <use x="63.623047" xlink:href="#DejaVuSans-46"/>
       <use x="95.410156" xlink:href="#DejaVuSans-48"/>
      </g>
     </g>
    </g>
    <g id="text_16">
     <!-- visibility -->
     <defs>
      <path d="M 2.984375 54.6875 
L 12.5 54.6875 
L 29.59375 8.796875 
L 46.6875 54.6875 
L 56.203125 54.6875 
L 35.6875 0 
L 23.484375 0 
z
" id="DejaVuSans-118"/>
      <path d="M 48.6875 27.296875 
Q 48.6875 37.203125 44.609375 42.84375 
Q 40.53125 48.484375 33.40625 48.484375 
Q 26.265625 48.484375 22.1875 42.84375 
Q 18.109375 37.203125 18.109375 27.296875 
Q 18.109375 17.390625 22.1875 11.75 
Q 26.265625 6.109375 33.40625 6.109375 
Q 40.53125 6.109375 44.609375 11.75 
Q 48.6875 17.390625 48.6875 27.296875 
z
M 18.109375 46.390625 
Q 20.953125 51.265625 25.265625 53.625 
Q 29.59375 56 35.59375 56 
Q 45.5625 56 51.78125 48.09375 
Q 58.015625 40.1875 58.015625 27.296875 
Q 58.015625 14.40625 51.78125 6.484375 
Q 45.5625 -1.421875 35.59375 -1.421875 
Q 29.59375 -1.421875 25.265625 0.953125 
Q 20.953125 3.328125 18.109375 8.203125 
L 18.109375 0 
L 9.078125 0 
L 9.078125 75.984375 
L 18.109375 75.984375 
z
" id="DejaVuSans-98"/>
     </defs>
     <g transform="translate(55.041563 384.125375)rotate(-90)scale(0.3 -0.3)">
      <use xlink:href="#DejaVuSans-118"/>
      <use x="59.179688" xlink:href="#DejaVuSans-105"/>
      <use x="86.962891" xlink:href="#DejaVuSans-115"/>
      <use x="139.0625" xlink:href="#DejaVuSans-105"/>
      <use x="166.845703" xlink:href="#DejaVuSans-98"/>
      <use x="230.322266" xlink:href="#DejaVuSans-105"/>
      <use x="258.105469" xlink:href="#DejaVuSans-108"/>
      <use x="285.888672" xlink:href="#DejaVuSans-105"/>
      <use x="313.671875" xlink:href="#DejaVuSans-116"/>
      <use x="352.880859" xlink:href="#DejaVuSans-121"/>
     </g>
    </g>
   </g>
   <g id="line2d_15">
    <path clip-path="url(#p8f7b497720)" d="M 178.517727 58.756 
L 190.341511 65.536087 
L 202.165294 72.315448 
L 213.989077 79.093393 
L 225.81286 85.869229 
L 237.636644 92.642264 
L 249.460427 99.411805 
L 261.28421 106.177157 
L 273.107994 112.937625 
L 284.931777 119.692511 
L 296.75556 126.441116 
L 308.579343 133.18274 
L 320.403127 139.91668 
L 332.22691 146.64223 
L 344.050693 153.358681 
L 355.874477 160.065324 
L 367.69826 166.761443 
L 379.522043 173.446322 
L 391.345826 180.119239 
L 403.16961 186.77947 
L 414.993393 193.426284 
L 426.817176 200.058949 
L 438.64096 206.676727 
L 450.464743 213.278873 
L 462.288526 219.86464 
L 474.112309 226.433273 
L 485.936093 232.984012 
L 497.759876 239.516091 
L 509.583659 246.028737 
L 521.407443 252.52117 
L 533.231226 258.992603 
L 545.055009 265.442241 
L 556.878792 271.86928 
L 568.702576 278.272911 
L 580.526359 284.652312 
L 592.350142 291.006653 
L 604.173926 297.335095 
L 615.997709 303.636789 
L 627.821492 309.910872 
L 639.645275 316.156473 
L 651.469059 322.372707 
L 663.292842 328.558678 
L 675.116625 334.713476 
L 686.940409 340.836176 
L 698.764192 346.925841 
L 710.587975 352.981515 
L 722.411758 359.00223 
L 734.235542 364.986997 
L 746.059325 370.934812 
L 757.883108 376.844652 
L 769.706892 382.715471 
L 781.530675 388.546206 
L 793.354458 394.33577 
L 805.178242 400.083052 
L 817.002025 405.786918 
L 828.825808 411.446207 
L 840.649591 417.05973 
L 852.473375 422.626269 
L 864.297158 428.144575 
L 876.120941 433.613366 
L 887.944725 439.031325 
L 899.768508 444.397097 
L 911.592291 449.709287 
L 923.416074 454.966459 
L 935.239858 460.167128 
L 947.063641 465.309763 
L 958.887424 470.392781 
L 970.711208 475.41454 
L 982.534991 480.373339 
L 994.358774 485.26741 
L 1006.182557 490.094916 
L 1018.006341 494.85394 
L 1029.830124 499.542484 
L 1041.653907 504.158456 
L 1053.477691 508.699665 
L 1065.301474 513.16381 
L 1077.125257 517.548468 
L 1088.94904 521.851082 
L 1100.772824 526.068945 
L 1112.596607 530.199184 
L 1124.42039 534.23874 
L 1136.244174 538.184341 
L 1148.067957 542.032477 
L 1159.89174 545.779362 
L 1171.715523 549.420896 
L 1183.539307 552.95261 
L 1195.36309 556.369605 
L 1207.186873 559.666471 
L 1219.010657 562.837181 
L 1230.83444 565.874956 
L 1242.658223 568.772083 
L 1254.482006 571.519664 
L 1266.30579 574.107254 
L 1278.129573 576.522326 
L 1289.953356 578.749435 
L 1301.77714 580.768799 
L 1313.600923 582.553689 
L 1325.424706 584.064799 
L 1337.248489 585.234669 
L 1349.072273 585.876 
" style="fill:none;stroke:#1f77b4;stroke-linecap:square;stroke-width:1.5;"/>
   </g>
   <g id="line2d_16">
    <path clip-path="url(#p8f7b497720)" d="M 178.517727 58.757942 
L 190.341511 66.377944 
L 202.165294 75.4077 
L 213.989077 85.674542 
L 225.81286 97.004781 
L 237.636644 109.227103 
L 249.460427 122.175463 
L 261.28421 135.691454 
L 273.107994 149.626183 
L 284.931777 163.841674 
L 296.75556 178.211821 
L 308.579343 192.622962 
L 320.403127 206.974091 
L 332.22691 221.17679 
L 344.050693 235.154906 
L 355.874477 248.844035 
L 367.69826 262.190854 
L 379.522043 275.152342 
L 391.345826 287.694934 
L 403.16961 299.793624 
L 414.993393 311.431062 
L 426.817176 322.596658 
L 438.64096 333.285712 
L 450.464743 343.498588 
L 462.288526 353.239929 
L 474.112309 362.517946 
L 485.936093 371.343755 
L 497.759876 379.730789 
L 509.583659 387.694262 
L 521.407443 395.250712 
L 533.231226 402.417588 
L 545.055009 409.212908 
L 556.878792 415.654956 
L 568.702576 421.762041 
L 580.526359 427.552285 
L 592.350142 433.043467 
L 604.173926 438.252885 
L 615.997709 443.197261 
L 627.821492 447.892666 
L 639.645275 452.354468 
L 651.469059 456.597303 
L 663.292842 460.635054 
L 675.116625 464.480858 
L 686.940409 468.147107 
L 698.764192 471.645468 
L 710.587975 474.986911 
L 722.411758 478.181736 
L 734.235542 481.239609 
L 746.059325 484.1696 
L 757.883108 486.980221 
L 769.706892 489.679474 
L 781.530675 492.274882 
L 793.354458 494.773544 
L 805.178242 497.18217 
L 817.002025 499.507124 
L 828.825808 501.754471 
L 840.649591 503.930009 
L 852.473375 506.039321 
L 864.297158 508.0878 
L 876.120941 510.080695 
L 887.944725 512.023145 
L 899.768508 513.920207 
L 911.592291 515.77689 
L 923.416074 517.598184 
L 935.239858 519.389083 
L 947.063641 521.154613 
L 958.887424 522.899846 
L 970.711208 524.629916 
L 982.534991 526.350027 
L 994.358774 528.065446 
L 1006.182557 529.781493 
L 1018.006341 531.50351 
L 1029.830124 533.236821 
L 1041.653907 534.986687 
L 1053.477691 536.758249 
L 1065.301474 538.556474 
L 1077.125257 540.386094 
L 1088.94904 542.251537 
L 1100.772824 544.156838 
L 1112.596607 546.105509 
L 1124.42039 548.100362 
L 1136.244174 550.143277 
L 1148.067957 552.234945 
L 1159.89174 554.374611 
L 1171.715523 556.559877 
L 1183.539307 558.786599 
L 1195.36309 561.048854 
L 1207.186873 563.338919 
L 1219.010657 565.647135 
L 1230.83444 567.961529 
L 1242.658223 570.26718 
L 1254.482006 572.545472 
L 1266.30579 574.773534 
L 1278.129573 576.924213 
L 1289.953356 578.966588 
L 1301.77714 580.866306 
L 1313.600923 582.583983 
L 1325.424706 584.068381 
L 1337.248489 585.236864 
L 1349.072273 585.876 
" style="fill:none;stroke:#ff7f0e;stroke-linecap:square;stroke-width:1.5;"/>
   </g>
   <g id="line2d_17">
    <path clip-path="url(#p8f7b497720)" d="M 178.517727 58.763769 
L 190.341511 68.893736 
L 202.165294 84.550975 
L 213.989077 104.807305 
L 225.81286 128.647712 
L 237.636644 155.039543 
L 249.460427 182.991051 
L 261.28421 211.596824 
L 273.107994 240.069324 
L 284.931777 267.757075 
L 296.75556 294.151031 
L 308.579343 318.881261 
L 320.403127 341.706323 
L 332.22691 362.497709 
L 344.050693 381.221538 
L 355.874477 397.919304 
L 367.69826 412.689134 
L 379.522043 425.668559 
L 391.345826 437.019485 
L 403.16961 446.915655 
L 414.993393 455.532714 
L 426.817176 463.040726 
L 438.64096 469.59893 
L 450.464743 475.3524 
L 462.288526 480.430268 
L 474.112309 484.945168 
L 485.936093 488.993589 
L 497.759876 492.65685 
L 509.583659 496.002469 
L 521.407443 499.085747 
L 533.231226 501.951409 
L 545.055009 504.635221 
L 556.878792 507.1655 
L 568.702576 509.564481 
L 580.526359 511.849522 
L 592.350142 514.034133 
L 604.173926 516.128839 
L 615.997709 518.141882 
L 627.821492 520.079775 
L 639.645275 521.947722 
L 651.469059 523.749949 
L 663.292842 525.489954 
L 675.116625 527.170745 
L 686.940409 528.795052 
L 698.764192 530.365541 
L 710.587975 531.884981 
L 722.411758 533.356309 
L 734.235542 534.782554 
L 746.059325 536.166618 
L 757.883108 537.510992 
L 769.706892 538.817566 
L 781.530675 540.087664 
L 793.354458 541.322364 
L 805.178242 542.522986 
L 817.002025 543.691505 
L 828.825808 544.830633 
L 840.649591 545.943488 
L 852.473375 547.033035 
L 864.297158 548.101647 
L 876.120941 549.151097 
L 887.944725 550.182929 
L 899.768508 551.198819 
L 911.592291 552.200472 
L 923.416074 553.188944 
L 935.239858 554.163845 
L 947.063641 555.123177 
L 958.887424 556.064185 
L 970.711208 556.984793 
L 982.534991 557.88455 
L 994.358774 558.764277 
L 1006.182557 559.624616 
L 1018.006341 560.464637 
L 1029.830124 561.281601 
L 1041.653907 562.071862 
L 1053.477691 562.831814 
L 1065.301474 563.558013 
L 1077.125257 564.246867 
L 1088.94904 564.895256 
L 1100.772824 565.502621 
L 1112.596607 566.073231 
L 1124.42039 566.61659 
L 1136.244174 567.145498 
L 1148.067957 567.673665 
L 1159.89174 568.215007 
L 1171.715523 568.784546 
L 1183.539307 569.398966 
L 1195.36309 570.075986 
L 1207.186873 570.834008 
L 1219.010657 571.693066 
L 1230.83444 572.674643 
L 1242.658223 573.796903 
L 1254.482006 575.066314 
L 1266.30579 576.471471 
L 1278.129573 577.982912 
L 1289.953356 579.556655 
L 1301.77714 581.13823 
L 1313.600923 582.666736 
L 1325.424706 584.072277 
L 1337.248489 585.244954 
L 1349.072273 585.876 
" style="fill:none;stroke:#2ca02c;stroke-linecap:square;stroke-width:1.5;"/>
   </g>
   <g id="line2d_18">
    <path clip-path="url(#p8f7b497720)" d="M 178.517727 58.804552 
L 190.341511 86.099327 
L 202.165294 143.240711 
L 213.989077 215.891486 
L 225.81286 289.396445 
L 237.636644 352.920501 
L 249.460427 401.251975 
L 261.28421 434.324772 
L 273.107994 455.351212 
L 284.931777 468.662947 
L 296.75556 478.069145 
L 308.579343 486.05685 
L 320.403127 493.742697 
L 332.22691 501.268996 
L 344.050693 508.319209 
L 355.874477 514.530601 
L 367.69826 519.715899 
L 379.522043 523.909665 
L 391.345826 527.306124 
L 403.16961 530.160152 
L 414.993393 532.702352 
L 426.817176 535.091766 
L 438.64096 537.407362 
L 450.464743 539.665678 
L 462.288526 541.847344 
L 474.112309 543.919423 
L 485.936093 545.849974 
L 497.759876 547.61783 
L 509.583659 549.218608 
L 521.407443 550.663641 
L 533.231226 551.972179 
L 545.055009 553.164981 
L 556.878792 554.264265 
L 568.702576 555.29309 
L 580.526359 556.268432 
L 592.350142 557.197113 
L 604.173926 558.082832 
L 615.997709 558.932904 
L 627.821492 559.753181 
L 639.645275 560.542657 
L 651.469059 561.299389 
L 663.292842 562.025754 
L 675.116625 562.724182 
L 686.940409 563.39518 
L 698.764192 564.040557 
L 710.587975 564.661939 
L 722.411758 565.259556 
L 734.235542 565.835963 
L 746.059325 566.393568 
L 757.883108 566.930524 
L 769.706892 567.446663 
L 781.530675 567.945039 
L 793.354458 568.425071 
L 805.178242 568.885558 
L 817.002025 569.329327 
L 828.825808 569.758324 
L 840.649591 570.173744 
L 852.473375 570.578585 
L 864.297158 570.975218 
L 876.120941 571.366481 
L 887.944725 571.754492 
L 899.768508 572.13894 
L 911.592291 572.521091 
L 923.416074 572.90041 
L 935.239858 573.2735 
L 947.063641 573.639554 
L 958.887424 573.996434 
L 970.711208 574.341122 
L 982.534991 574.673022 
L 994.358774 574.991136 
L 1006.182557 575.295533 
L 1018.006341 575.586699 
L 1029.830124 575.866547 
L 1041.653907 576.138576 
L 1053.477691 576.406138 
L 1065.301474 576.676192 
L 1077.125257 576.9549 
L 1088.94904 577.247163 
L 1100.772824 577.555984 
L 1112.596607 577.877809 
L 1124.42039 578.204307 
L 1136.244174 578.523039 
L 1148.067957 578.822516 
L 1159.89174 579.095323 
L 1171.715523 579.344262 
L 1183.539307 579.581595 
L 1195.36309 579.827452 
L 1207.186873 580.105998 
L 1219.010657 580.434907 
L 1230.83444 580.814893 
L 1242.658223 581.218083 
L 1254.482006 581.59043 
L 1266.30579 581.880005 
L 1278.129573 582.09128 
L 1289.953356 582.321711 
L 1301.77714 582.731963 
L 1313.600923 583.428644 
L 1325.424706 584.346214 
L 1337.248489 585.256605 
L 1349.072273 585.876 
" style="fill:none;stroke:#d62728;stroke-linecap:square;stroke-width:1.5;"/>
   </g>
   <g id="line2d_19">
    <path clip-path="url(#p8f7b497720)" d="M 178.517727 58.950177 
L 190.341511 142.083408 
L 202.165294 291.375299 
L 213.989077 404.366723 
L 225.81286 455.207594 
L 237.636644 476.238775 
L 249.460427 493.671606 
L 261.28421 509.200412 
L 273.107994 519.105016 
L 284.931777 525.49147 
L 296.75556 531.548956 
L 308.579343 537.281782 
L 320.403127 541.597946 
L 332.22691 544.725822 
L 344.050693 547.594165 
L 355.874477 550.479598 
L 367.69826 553.019702 
L 379.522043 555.000656 
L 391.345826 556.63924 
L 403.16961 558.213081 
L 414.993393 559.779292 
L 426.817176 561.231262 
L 438.64096 562.461544 
L 450.464743 563.498866 
L 462.288526 564.442507 
L 474.112309 565.361393 
L 485.936093 566.268534 
L 497.759876 567.127224 
L 509.583659 567.905231 
L 521.407443 568.595907 
L 533.231226 569.216176 
L 545.055009 569.792999 
L 556.878792 570.347051 
L 568.702576 570.886635 
L 580.526359 571.411762 
L 592.350142 571.915327 
L 604.173926 572.393123 
L 615.997709 572.840769 
L 627.821492 573.259489 
L 639.645275 573.650774 
L 651.469059 574.018603 
L 663.292842 574.366357 
L 675.116625 574.697334 
L 686.940409 575.014136 
L 698.764192 575.318912 
L 710.587975 575.61279 
L 722.411758 575.897366 
L 734.235542 576.17269 
L 746.059325 576.439682 
L 757.883108 576.698396 
L 769.706892 576.948595 
L 781.530675 577.191003 
L 793.354458 577.424916 
L 805.178242 577.651133 
L 817.002025 577.869842 
L 828.825808 578.081488 
L 840.649591 578.286945 
L 852.473375 578.486709 
L 864.297158 578.681375 
L 876.120941 578.87098 
L 887.944725 579.055586 
L 899.768508 579.234739 
L 911.592291 579.407795 
L 923.416074 579.574998 
L 935.239858 579.73691 
L 947.063641 579.894968 
L 958.887424 580.051724 
L 970.711208 580.209294 
L 982.534991 580.368297 
L 994.358774 580.527076 
L 1006.182557 580.681637 
L 1018.006341 580.828037 
L 1029.830124 580.965903 
L 1041.653907 581.100362 
L 1053.477691 581.24005 
L 1065.301474 581.39039 
L 1077.125257 581.54671 
L 1088.94904 581.695495 
L 1100.772824 581.826226 
L 1112.596607 581.944026 
L 1124.42039 582.068066 
L 1136.244174 582.212535 
L 1148.067957 582.368923 
L 1159.89174 582.514136 
L 1171.715523 582.641156 
L 1183.539307 582.772984 
L 1195.36309 582.93077 
L 1207.186873 583.093709 
L 1219.010657 583.223958 
L 1230.83444 583.339459 
L 1242.658223 583.503182 
L 1254.482006 583.708797 
L 1266.30579 583.875728 
L 1278.129573 584.011021 
L 1289.953356 584.21066 
L 1301.77714 584.451586 
L 1313.600923 584.635665 
L 1325.424706 584.854674 
L 1337.248489 585.345004 
L 1349.072273 585.876 
" style="fill:none;stroke:#9467bd;stroke-linecap:square;stroke-width:1.5;"/>
   </g>
   <g id="patch_3">
    <path d="M 119.99 612.232 
L 119.99 32.4 
" style="fill:none;stroke:#000000;stroke-linecap:square;stroke-linejoin:miter;stroke-width:0.8;"/>
   </g>
   <g id="patch_4">
    <path d="M 1407.6 612.232 
L 1407.6 32.4 
" style="fill:none;stroke:#000000;stroke-linecap:square;stroke-linejoin:miter;stroke-width:0.8;"/>
   </g>
   <g id="patch_5">
    <path d="M 119.99 612.232 
L 1407.6 612.232 
" style="fill:none;stroke:#000000;stroke-linecap:square;stroke-linejoin:miter;stroke-width:0.8;"/>
   </g>
   <g id="patch_6">
    <path d="M 119.99 32.4 
L 1407.6 32.4 
" style="fill:none;stroke:#000000;stroke-linecap:square;stroke-linejoin:miter;stroke-width:0.8;"/>
   </g>
   <g id="legend_1">
    <g id="patch_7">
     <path d="M 1048.2 276.834375 
L 1386.6 276.834375 
Q 1392.6 276.834375 1392.6 270.834375 
L 1392.6 53.4 
Q 1392.6 47.4 1386.6 47.4 
L 1048.2 47.4 
Q 1042.2 47.4 1042.2 53.4 
L 1042.2 270.834375 
Q 1042.2 276.834375 1048.2 276.834375 
z
" style="fill:#ffffff;opacity:0.8;stroke:#cccccc;stroke-linejoin:miter;"/>
    </g>
    <g id="line2d_20">
     <path d="M 1054.2 71.695313 
L 1114.2 71.695313 
" style="fill:none;stroke:#1f77b4;stroke-linecap:square;stroke-width:1.5;"/>
    </g>
    <g id="line2d_21"/>
    <g id="text_17">
     <!-- perfect focus -->
     <defs>
      <path d="M 30.609375 48.390625 
Q 23.390625 48.390625 19.1875 42.75 
Q 14.984375 37.109375 14.984375 27.296875 
Q 14.984375 17.484375 19.15625 11.84375 
Q 23.34375 6.203125 30.609375 6.203125 
Q 37.796875 6.203125 41.984375 11.859375 
Q 46.1875 17.53125 46.1875 27.296875 
Q 46.1875 37.015625 41.984375 42.703125 
Q 37.796875 48.390625 30.609375 48.390625 
z
M 30.609375 56 
Q 42.328125 56 49.015625 48.375 
Q 55.71875 40.765625 55.71875 27.296875 
Q 55.71875 13.875 49.015625 6.21875 
Q 42.328125 -1.421875 30.609375 -1.421875 
Q 18.84375 -1.421875 12.171875 6.21875 
Q 5.515625 13.875 5.515625 27.296875 
Q 5.515625 40.765625 12.171875 48.375 
Q 18.84375 56 30.609375 56 
z
" id="DejaVuSans-111"/>
     </defs>
     <g transform="translate(1138.2 82.195313)scale(0.3 -0.3)">
      <use xlink:href="#DejaVuSans-112"/>
      <use x="63.476562" xlink:href="#DejaVuSans-101"/>
      <use x="125" xlink:href="#DejaVuSans-114"/>
      <use x="166.113281" xlink:href="#DejaVuSans-102"/>
      <use x="201.318359" xlink:href="#DejaVuSans-101"/>
      <use x="262.841797" xlink:href="#DejaVuSans-99"/>
      <use x="317.822266" xlink:href="#DejaVuSans-116"/>
      <use x="357.03125" xlink:href="#DejaVuSans-32"/>
      <use x="388.818359" xlink:href="#DejaVuSans-102"/>
      <use x="424.023438" xlink:href="#DejaVuSans-111"/>
      <use x="485.205078" xlink:href="#DejaVuSans-99"/>
      <use x="540.185547" xlink:href="#DejaVuSans-117"/>
      <use x="603.564453" xlink:href="#DejaVuSans-115"/>
     </g>
    </g>
    <g id="line2d_22">
     <path d="M 1054.2 115.734375 
L 1114.2 115.734375 
" style="fill:none;stroke:#ff7f0e;stroke-linecap:square;stroke-width:1.5;"/>
    </g>
    <g id="line2d_23"/>
    <g id="text_18">
     <!-- 10 $\mu m$ defocus -->
     <defs>
      <path d="M 45.40625 46.390625 
L 45.40625 75.984375 
L 54.390625 75.984375 
L 54.390625 0 
L 45.40625 0 
L 45.40625 8.203125 
Q 42.578125 3.328125 38.25 0.953125 
Q 33.9375 -1.421875 27.875 -1.421875 
Q 17.96875 -1.421875 11.734375 6.484375 
Q 5.515625 14.40625 5.515625 27.296875 
Q 5.515625 40.1875 11.734375 48.09375 
Q 17.96875 56 27.875 56 
Q 33.9375 56 38.25 53.625 
Q 42.578125 51.265625 45.40625 46.390625 
z
M 14.796875 27.296875 
Q 14.796875 17.390625 18.875 11.75 
Q 22.953125 6.109375 30.078125 6.109375 
Q 37.203125 6.109375 41.296875 11.75 
Q 45.40625 17.390625 45.40625 27.296875 
Q 45.40625 37.203125 41.296875 42.84375 
Q 37.203125 48.484375 30.078125 48.484375 
Q 22.953125 48.484375 18.875 42.84375 
Q 14.796875 37.203125 14.796875 27.296875 
z
" id="DejaVuSans-100"/>
     </defs>
     <g transform="translate(1138.2 126.234375)scale(0.3 -0.3)">
      <use transform="translate(0 0.015625)" xlink:href="#DejaVuSans-49"/>
      <use transform="translate(63.623047 0.015625)" xlink:href="#DejaVuSans-48"/>
      <use transform="translate(127.246094 0.015625)" xlink:href="#DejaVuSans-32"/>
      <use transform="translate(159.033203 0.015625)" xlink:href="#DejaVuSans-Oblique-956"/>
      <use transform="translate(222.65625 0.015625)" xlink:href="#DejaVuSans-Oblique-109"/>
      <use transform="translate(320.068359 0.015625)" xlink:href="#DejaVuSans-32"/>
      <use transform="translate(351.855469 0.015625)" xlink:href="#DejaVuSans-100"/>
      <use transform="translate(415.332031 0.015625)" xlink:href="#DejaVuSans-101"/>
      <use transform="translate(476.855469 0.015625)" xlink:href="#DejaVuSans-102"/>
      <use transform="translate(512.060547 0.015625)" xlink:href="#DejaVuSans-111"/>
      <use transform="translate(573.242188 0.015625)" xlink:href="#DejaVuSans-99"/>
      <use transform="translate(628.222656 0.015625)" xlink:href="#DejaVuSans-117"/>
      <use transform="translate(691.601562 0.015625)" xlink:href="#DejaVuSans-115"/>
     </g>
    </g>
    <g id="line2d_24">
     <path d="M 1054.2 159.834375 
L 1114.2 159.834375 
" style="fill:none;stroke:#2ca02c;stroke-linecap:square;stroke-width:1.5;"/>
    </g>
    <g id="line2d_25"/>
    <g id="text_19">
     <!-- 20 $\mu m$ defocus -->
     <g transform="translate(1138.2 170.334375)scale(0.3 -0.3)">
      <use transform="translate(0 0.015625)" xlink:href="#DejaVuSans-50"/>
      <use transform="translate(63.623047 0.015625)" xlink:href="#DejaVuSans-48"/>
      <use transform="translate(127.246094 0.015625)" xlink:href="#DejaVuSans-32"/>
      <use transform="translate(159.033203 0.015625)" xlink:href="#DejaVuSans-Oblique-956"/>
      <use transform="translate(222.65625 0.015625)" xlink:href="#DejaVuSans-Oblique-109"/>
      <use transform="translate(320.068359 0.015625)" xlink:href="#DejaVuSans-32"/>
      <use transform="translate(351.855469 0.015625)" xlink:href="#DejaVuSans-100"/>
      <use transform="translate(415.332031 0.015625)" xlink:href="#DejaVuSans-101"/>
      <use transform="translate(476.855469 0.015625)" xlink:href="#DejaVuSans-102"/>
      <use transform="translate(512.060547 0.015625)" xlink:href="#DejaVuSans-111"/>
      <use transform="translate(573.242188 0.015625)" xlink:href="#DejaVuSans-99"/>
      <use transform="translate(628.222656 0.015625)" xlink:href="#DejaVuSans-117"/>
      <use transform="translate(691.601562 0.015625)" xlink:href="#DejaVuSans-115"/>
     </g>
    </g>
    <g id="line2d_26">
     <path d="M 1054.2 203.934375 
L 1114.2 203.934375 
" style="fill:none;stroke:#d62728;stroke-linecap:square;stroke-width:1.5;"/>
    </g>
    <g id="line2d_27"/>
    <g id="text_20">
     <!-- 50 $\mu m$ defocus -->
     <defs>
      <path d="M 10.796875 72.90625 
L 49.515625 72.90625 
L 49.515625 64.59375 
L 19.828125 64.59375 
L 19.828125 46.734375 
Q 21.96875 47.46875 24.109375 47.828125 
Q 26.265625 48.1875 28.421875 48.1875 
Q 40.625 48.1875 47.75 41.5 
Q 54.890625 34.8125 54.890625 23.390625 
Q 54.890625 11.625 47.5625 5.09375 
Q 40.234375 -1.421875 26.90625 -1.421875 
Q 22.3125 -1.421875 17.546875 -0.640625 
Q 12.796875 0.140625 7.71875 1.703125 
L 7.71875 11.625 
Q 12.109375 9.234375 16.796875 8.0625 
Q 21.484375 6.890625 26.703125 6.890625 
Q 35.15625 6.890625 40.078125 11.328125 
Q 45.015625 15.765625 45.015625 23.390625 
Q 45.015625 31 40.078125 35.4375 
Q 35.15625 39.890625 26.703125 39.890625 
Q 22.75 39.890625 18.8125 39.015625 
Q 14.890625 38.140625 10.796875 36.28125 
z
" id="DejaVuSans-53"/>
     </defs>
     <g transform="translate(1138.2 214.434375)scale(0.3 -0.3)">
      <use transform="translate(0 0.015625)" xlink:href="#DejaVuSans-53"/>
      <use transform="translate(63.623047 0.015625)" xlink:href="#DejaVuSans-48"/>
      <use transform="translate(127.246094 0.015625)" xlink:href="#DejaVuSans-32"/>
      <use transform="translate(159.033203 0.015625)" xlink:href="#DejaVuSans-Oblique-956"/>
      <use transform="translate(222.65625 0.015625)" xlink:href="#DejaVuSans-Oblique-109"/>
      <use transform="translate(320.068359 0.015625)" xlink:href="#DejaVuSans-32"/>
      <use transform="translate(351.855469 0.015625)" xlink:href="#DejaVuSans-100"/>
      <use transform="translate(415.332031 0.015625)" xlink:href="#DejaVuSans-101"/>
      <use transform="translate(476.855469 0.015625)" xlink:href="#DejaVuSans-102"/>
      <use transform="translate(512.060547 0.015625)" xlink:href="#DejaVuSans-111"/>
      <use transform="translate(573.242188 0.015625)" xlink:href="#DejaVuSans-99"/>
      <use transform="translate(628.222656 0.015625)" xlink:href="#DejaVuSans-117"/>
      <use transform="translate(691.601562 0.015625)" xlink:href="#DejaVuSans-115"/>
     </g>
    </g>
    <g id="line2d_28">
     <path d="M 1054.2 248.034375 
L 1114.2 248.034375 
" style="fill:none;stroke:#9467bd;stroke-linecap:square;stroke-width:1.5;"/>
    </g>
    <g id="line2d_29"/>
    <g id="text_21">
     <!-- 100 $\mu m$ defocus -->
     <g transform="translate(1138.2 258.534375)scale(0.3 -0.3)">
      <use transform="translate(0 0.015625)" xlink:href="#DejaVuSans-49"/>
      <use transform="translate(63.623047 0.015625)" xlink:href="#DejaVuSans-48"/>
      <use transform="translate(127.246094 0.015625)" xlink:href="#DejaVuSans-48"/>
      <use transform="translate(190.869141 0.015625)" xlink:href="#DejaVuSans-32"/>
      <use transform="translate(222.65625 0.015625)" xlink:href="#DejaVuSans-Oblique-956"/>
      <use transform="translate(286.279297 0.015625)" xlink:href="#DejaVuSans-Oblique-109"/>
      <use transform="translate(383.691406 0.015625)" xlink:href="#DejaVuSans-32"/>
      <use transform="translate(415.478516 0.015625)" xlink:href="#DejaVuSans-100"/>
      <use transform="translate(478.955078 0.015625)" xlink:href="#DejaVuSans-101"/>
      <use transform="translate(540.478516 0.015625)" xlink:href="#DejaVuSans-102"/>
      <use transform="translate(575.683594 0.015625)" xlink:href="#DejaVuSans-111"/>
      <use transform="translate(636.865234 0.015625)" xlink:href="#DejaVuSans-99"/>
      <use transform="translate(691.845703 0.015625)" xlink:href="#DejaVuSans-117"/>
      <use transform="translate(755.224609 0.015625)" xlink:href="#DejaVuSans-115"/>
     </g>
    </g>
   </g>
  </g>
 </g>
 <defs>
  <clipPath id="p8f7b497720">
   <rect height="579.832" width="1287.61" x="119.99" y="32.4"/>
  </clipPath>
 </defs>
</svg>
