<?xml version="1.0" encoding="utf-8" standalone="no"?>
<!DOCTYPE svg PUBLIC "-//W3C//DTD SVG 1.1//EN"
  "http://www.w3.org/Graphics/SVG/1.1/DTD/svg11.dtd">
<!-- Created with matplotlib (https://matplotlib.org/) -->
<svg height="720pt" version="1.1" viewBox="0 0 1440 720" width="1440pt" xmlns="http://www.w3.org/2000/svg" xmlns:xlink="http://www.w3.org/1999/xlink">
 <defs>
  <style type="text/css">
*{stroke-linecap:butt;stroke-linejoin:round;}
  </style>
 </defs>
 <g id="figure_1">
  <g id="patch_1">
   <path d="M 0 720 
L 1440 720 
L 1440 0 
L 0 0 
z
" style="fill:#ffffff;"/>
  </g>
  <g id="axes_1">
   <g id="patch_2">
    <path d="M 99.7257 641.392 
L 1418.4 641.392 
L 1418.4 21.6 
L 99.7257 21.6 
z
" style="fill:#ffffff;"/>
   </g>
   <g id="matplotlib.axis_1">
    <g id="xtick_1">
     <g id="line2d_1">
      <defs>
       <path d="M 0 0 
L 0 3.5 
" id="md03e1fda00" style="stroke:#000000;stroke-width:0.8;"/>
      </defs>
      <g>
       <use style="stroke:#000000;stroke-width:0.8;" x="159.665441" xlink:href="#md03e1fda00" y="641.392"/>
      </g>
     </g>
     <g id="text_1">
      <!-- 0.0 -->
      <defs>
       <path d="M 31.78125 66.40625 
Q 24.171875 66.40625 20.328125 58.90625 
Q 16.5 51.421875 16.5 36.375 
Q 16.5 21.390625 20.328125 13.890625 
Q 24.171875 6.390625 31.78125 6.390625 
Q 39.453125 6.390625 43.28125 13.890625 
Q 47.125 21.390625 47.125 36.375 
Q 47.125 51.421875 43.28125 58.90625 
Q 39.453125 66.40625 31.78125 66.40625 
z
M 31.78125 74.21875 
Q 44.046875 74.21875 50.515625 64.515625 
Q 56.984375 54.828125 56.984375 36.375 
Q 56.984375 17.96875 50.515625 8.265625 
Q 44.046875 -1.421875 31.78125 -1.421875 
Q 19.53125 -1.421875 13.0625 8.265625 
Q 6.59375 17.96875 6.59375 36.375 
Q 6.59375 54.828125 13.0625 64.515625 
Q 19.53125 74.21875 31.78125 74.21875 
z
" id="DejaVuSans-48"/>
       <path d="M 10.6875 12.40625 
L 21 12.40625 
L 21 0 
L 10.6875 0 
z
" id="DejaVuSans-46"/>
      </defs>
      <g transform="translate(143.762316 663.588875)scale(0.2 -0.2)">
       <use xlink:href="#DejaVuSans-48"/>
       <use x="63.623047" xlink:href="#DejaVuSans-46"/>
       <use x="95.410156" xlink:href="#DejaVuSans-48"/>
      </g>
     </g>
    </g>
    <g id="xtick_2">
     <g id="line2d_2">
      <g>
       <use style="stroke:#000000;stroke-width:0.8;" x="331.701279" xlink:href="#md03e1fda00" y="641.392"/>
      </g>
     </g>
     <g id="text_2">
      <!-- 0.5 -->
      <defs>
       <path d="M 10.796875 72.90625 
L 49.515625 72.90625 
L 49.515625 64.59375 
L 19.828125 64.59375 
L 19.828125 46.734375 
Q 21.96875 47.46875 24.109375 47.828125 
Q 26.265625 48.1875 28.421875 48.1875 
Q 40.625 48.1875 47.75 41.5 
Q 54.890625 34.8125 54.890625 23.390625 
Q 54.890625 11.625 47.5625 5.09375 
Q 40.234375 -1.421875 26.90625 -1.421875 
Q 22.3125 -1.421875 17.546875 -0.640625 
Q 12.796875 0.140625 7.71875 1.703125 
L 7.71875 11.625 
Q 12.109375 9.234375 16.796875 8.0625 
Q 21.484375 6.890625 26.703125 6.890625 
Q 35.15625 6.890625 40.078125 11.328125 
Q 45.015625 15.765625 45.015625 23.390625 
Q 45.015625 31 40.078125 35.4375 
Q 35.15625 39.890625 26.703125 39.890625 
Q 22.75 39.890625 18.8125 39.015625 
Q 14.890625 38.140625 10.796875 36.28125 
z
" id="DejaVuSans-53"/>
      </defs>
      <g transform="translate(315.798154 663.588875)scale(0.2 -0.2)">
       <use xlink:href="#DejaVuSans-48"/>
       <use x="63.623047" xlink:href="#DejaVuSans-46"/>
       <use x="95.410156" xlink:href="#DejaVuSans-53"/>
      </g>
     </g>
    </g>
    <g id="xtick_3">
     <g id="line2d_3">
      <g>
       <use style="stroke:#000000;stroke-width:0.8;" x="503.737117" xlink:href="#md03e1fda00" y="641.392"/>
      </g>
     </g>
     <g id="text_3">
      <!-- 1.0 -->
      <defs>
       <path d="M 12.40625 8.296875 
L 28.515625 8.296875 
L 28.515625 63.921875 
L 10.984375 60.40625 
L 10.984375 69.390625 
L 28.421875 72.90625 
L 38.28125 72.90625 
L 38.28125 8.296875 
L 54.390625 8.296875 
L 54.390625 0 
L 12.40625 0 
z
" id="DejaVuSans-49"/>
      </defs>
      <g transform="translate(487.833992 663.588875)scale(0.2 -0.2)">
       <use xlink:href="#DejaVuSans-49"/>
       <use x="63.623047" xlink:href="#DejaVuSans-46"/>
       <use x="95.410156" xlink:href="#DejaVuSans-48"/>
      </g>
     </g>
    </g>
    <g id="xtick_4">
     <g id="line2d_4">
      <g>
       <use style="stroke:#000000;stroke-width:0.8;" x="675.772955" xlink:href="#md03e1fda00" y="641.392"/>
      </g>
     </g>
     <g id="text_4">
      <!-- 1.5 -->
      <g transform="translate(659.86983 663.588875)scale(0.2 -0.2)">
       <use xlink:href="#DejaVuSans-49"/>
       <use x="63.623047" xlink:href="#DejaVuSans-46"/>
       <use x="95.410156" xlink:href="#DejaVuSans-53"/>
      </g>
     </g>
    </g>
    <g id="xtick_5">
     <g id="line2d_5">
      <g>
       <use style="stroke:#000000;stroke-width:0.8;" x="847.808793" xlink:href="#md03e1fda00" y="641.392"/>
      </g>
     </g>
     <g id="text_5">
      <!-- 2.0 -->
      <defs>
       <path d="M 19.1875 8.296875 
L 53.609375 8.296875 
L 53.609375 0 
L 7.328125 0 
L 7.328125 8.296875 
Q 12.9375 14.109375 22.625 23.890625 
Q 32.328125 33.6875 34.8125 36.53125 
Q 39.546875 41.84375 41.421875 45.53125 
Q 43.3125 49.21875 43.3125 52.78125 
Q 43.3125 58.59375 39.234375 62.25 
Q 35.15625 65.921875 28.609375 65.921875 
Q 23.96875 65.921875 18.8125 64.3125 
Q 13.671875 62.703125 7.8125 59.421875 
L 7.8125 69.390625 
Q 13.765625 71.78125 18.9375 73 
Q 24.125 74.21875 28.421875 74.21875 
Q 39.75 74.21875 46.484375 68.546875 
Q 53.21875 62.890625 53.21875 53.421875 
Q 53.21875 48.921875 51.53125 44.890625 
Q 49.859375 40.875 45.40625 35.40625 
Q 44.1875 33.984375 37.640625 27.21875 
Q 31.109375 20.453125 19.1875 8.296875 
z
" id="DejaVuSans-50"/>
      </defs>
      <g transform="translate(831.905668 663.588875)scale(0.2 -0.2)">
       <use xlink:href="#DejaVuSans-50"/>
       <use x="63.623047" xlink:href="#DejaVuSans-46"/>
       <use x="95.410156" xlink:href="#DejaVuSans-48"/>
      </g>
     </g>
    </g>
    <g id="xtick_6">
     <g id="line2d_6">
      <g>
       <use style="stroke:#000000;stroke-width:0.8;" x="1019.84463" xlink:href="#md03e1fda00" y="641.392"/>
      </g>
     </g>
     <g id="text_6">
      <!-- 2.5 -->
      <g transform="translate(1003.941505 663.588875)scale(0.2 -0.2)">
       <use xlink:href="#DejaVuSans-50"/>
       <use x="63.623047" xlink:href="#DejaVuSans-46"/>
       <use x="95.410156" xlink:href="#DejaVuSans-53"/>
      </g>
     </g>
    </g>
    <g id="xtick_7">
     <g id="line2d_7">
      <g>
       <use style="stroke:#000000;stroke-width:0.8;" x="1191.880468" xlink:href="#md03e1fda00" y="641.392"/>
      </g>
     </g>
     <g id="text_7">
      <!-- 3.0 -->
      <defs>
       <path d="M 40.578125 39.3125 
Q 47.65625 37.796875 51.625 33 
Q 55.609375 28.21875 55.609375 21.1875 
Q 55.609375 10.40625 48.1875 4.484375 
Q 40.765625 -1.421875 27.09375 -1.421875 
Q 22.515625 -1.421875 17.65625 -0.515625 
Q 12.796875 0.390625 7.625 2.203125 
L 7.625 11.71875 
Q 11.71875 9.328125 16.59375 8.109375 
Q 21.484375 6.890625 26.8125 6.890625 
Q 36.078125 6.890625 40.9375 10.546875 
Q 45.796875 14.203125 45.796875 21.1875 
Q 45.796875 27.640625 41.28125 31.265625 
Q 36.765625 34.90625 28.71875 34.90625 
L 20.21875 34.90625 
L 20.21875 43.015625 
L 29.109375 43.015625 
Q 36.375 43.015625 40.234375 45.921875 
Q 44.09375 48.828125 44.09375 54.296875 
Q 44.09375 59.90625 40.109375 62.90625 
Q 36.140625 65.921875 28.71875 65.921875 
Q 24.65625 65.921875 20.015625 65.03125 
Q 15.375 64.15625 9.8125 62.3125 
L 9.8125 71.09375 
Q 15.4375 72.65625 20.34375 73.4375 
Q 25.25 74.21875 29.59375 74.21875 
Q 40.828125 74.21875 47.359375 69.109375 
Q 53.90625 64.015625 53.90625 55.328125 
Q 53.90625 49.265625 50.4375 45.09375 
Q 46.96875 40.921875 40.578125 39.3125 
z
" id="DejaVuSans-51"/>
      </defs>
      <g transform="translate(1175.977343 663.588875)scale(0.2 -0.2)">
       <use xlink:href="#DejaVuSans-51"/>
       <use x="63.623047" xlink:href="#DejaVuSans-46"/>
       <use x="95.410156" xlink:href="#DejaVuSans-48"/>
      </g>
     </g>
    </g>
    <g id="xtick_8">
     <g id="line2d_8">
      <g>
       <use style="stroke:#000000;stroke-width:0.8;" x="1363.916306" xlink:href="#md03e1fda00" y="641.392"/>
      </g>
     </g>
     <g id="text_8">
      <!-- 3.5 -->
      <g transform="translate(1348.013181 663.588875)scale(0.2 -0.2)">
       <use xlink:href="#DejaVuSans-51"/>
       <use x="63.623047" xlink:href="#DejaVuSans-46"/>
       <use x="95.410156" xlink:href="#DejaVuSans-53"/>
      </g>
     </g>
    </g>
    <g id="text_9">
     <!-- spatial frequency $[\mu m^{-1}]$ -->
     <defs>
      <path d="M 44.28125 53.078125 
L 44.28125 44.578125 
Q 40.484375 46.53125 36.375 47.5 
Q 32.28125 48.484375 27.875 48.484375 
Q 21.1875 48.484375 17.84375 46.4375 
Q 14.5 44.390625 14.5 40.28125 
Q 14.5 37.15625 16.890625 35.375 
Q 19.28125 33.59375 26.515625 31.984375 
L 29.59375 31.296875 
Q 39.15625 29.25 43.1875 25.515625 
Q 47.21875 21.78125 47.21875 15.09375 
Q 47.21875 7.46875 41.1875 3.015625 
Q 35.15625 -1.421875 24.609375 -1.421875 
Q 20.21875 -1.421875 15.453125 -0.5625 
Q 10.6875 0.296875 5.421875 2 
L 5.421875 11.28125 
Q 10.40625 8.6875 15.234375 7.390625 
Q 20.0625 6.109375 24.8125 6.109375 
Q 31.15625 6.109375 34.5625 8.28125 
Q 37.984375 10.453125 37.984375 14.40625 
Q 37.984375 18.0625 35.515625 20.015625 
Q 33.0625 21.96875 24.703125 23.78125 
L 21.578125 24.515625 
Q 13.234375 26.265625 9.515625 29.90625 
Q 5.8125 33.546875 5.8125 39.890625 
Q 5.8125 47.609375 11.28125 51.796875 
Q 16.75 56 26.8125 56 
Q 31.78125 56 36.171875 55.265625 
Q 40.578125 54.546875 44.28125 53.078125 
z
" id="DejaVuSans-115"/>
      <path d="M 18.109375 8.203125 
L 18.109375 -20.796875 
L 9.078125 -20.796875 
L 9.078125 54.6875 
L 18.109375 54.6875 
L 18.109375 46.390625 
Q 20.953125 51.265625 25.265625 53.625 
Q 29.59375 56 35.59375 56 
Q 45.5625 56 51.78125 48.09375 
Q 58.015625 40.1875 58.015625 27.296875 
Q 58.015625 14.40625 51.78125 6.484375 
Q 45.5625 -1.421875 35.59375 -1.421875 
Q 29.59375 -1.421875 25.265625 0.953125 
Q 20.953125 3.328125 18.109375 8.203125 
z
M 48.6875 27.296875 
Q 48.6875 37.203125 44.609375 42.84375 
Q 40.53125 48.484375 33.40625 48.484375 
Q 26.265625 48.484375 22.1875 42.84375 
Q 18.109375 37.203125 18.109375 27.296875 
Q 18.109375 17.390625 22.1875 11.75 
Q 26.265625 6.109375 33.40625 6.109375 
Q 40.53125 6.109375 44.609375 11.75 
Q 48.6875 17.390625 48.6875 27.296875 
z
" id="DejaVuSans-112"/>
      <path d="M 34.28125 27.484375 
Q 23.390625 27.484375 19.1875 25 
Q 14.984375 22.515625 14.984375 16.5 
Q 14.984375 11.71875 18.140625 8.90625 
Q 21.296875 6.109375 26.703125 6.109375 
Q 34.1875 6.109375 38.703125 11.40625 
Q 43.21875 16.703125 43.21875 25.484375 
L 43.21875 27.484375 
z
M 52.203125 31.203125 
L 52.203125 0 
L 43.21875 0 
L 43.21875 8.296875 
Q 40.140625 3.328125 35.546875 0.953125 
Q 30.953125 -1.421875 24.3125 -1.421875 
Q 15.921875 -1.421875 10.953125 3.296875 
Q 6 8.015625 6 15.921875 
Q 6 25.140625 12.171875 29.828125 
Q 18.359375 34.515625 30.609375 34.515625 
L 43.21875 34.515625 
L 43.21875 35.40625 
Q 43.21875 41.609375 39.140625 45 
Q 35.0625 48.390625 27.6875 48.390625 
Q 23 48.390625 18.546875 47.265625 
Q 14.109375 46.140625 10.015625 43.890625 
L 10.015625 52.203125 
Q 14.9375 54.109375 19.578125 55.046875 
Q 24.21875 56 28.609375 56 
Q 40.484375 56 46.34375 49.84375 
Q 52.203125 43.703125 52.203125 31.203125 
z
" id="DejaVuSans-97"/>
      <path d="M 18.3125 70.21875 
L 18.3125 54.6875 
L 36.8125 54.6875 
L 36.8125 47.703125 
L 18.3125 47.703125 
L 18.3125 18.015625 
Q 18.3125 11.328125 20.140625 9.421875 
Q 21.96875 7.515625 27.59375 7.515625 
L 36.8125 7.515625 
L 36.8125 0 
L 27.59375 0 
Q 17.1875 0 13.234375 3.875 
Q 9.28125 7.765625 9.28125 18.015625 
L 9.28125 47.703125 
L 2.6875 47.703125 
L 2.6875 54.6875 
L 9.28125 54.6875 
L 9.28125 70.21875 
z
" id="DejaVuSans-116"/>
      <path d="M 9.421875 54.6875 
L 18.40625 54.6875 
L 18.40625 0 
L 9.421875 0 
z
M 9.421875 75.984375 
L 18.40625 75.984375 
L 18.40625 64.59375 
L 9.421875 64.59375 
z
" id="DejaVuSans-105"/>
      <path d="M 9.421875 75.984375 
L 18.40625 75.984375 
L 18.40625 0 
L 9.421875 0 
z
" id="DejaVuSans-108"/>
      <path id="DejaVuSans-32"/>
      <path d="M 37.109375 75.984375 
L 37.109375 68.5 
L 28.515625 68.5 
Q 23.6875 68.5 21.796875 66.546875 
Q 19.921875 64.59375 19.921875 59.515625 
L 19.921875 54.6875 
L 34.71875 54.6875 
L 34.71875 47.703125 
L 19.921875 47.703125 
L 19.921875 0 
L 10.890625 0 
L 10.890625 47.703125 
L 2.296875 47.703125 
L 2.296875 54.6875 
L 10.890625 54.6875 
L 10.890625 58.5 
Q 10.890625 67.625 15.140625 71.796875 
Q 19.390625 75.984375 28.609375 75.984375 
z
" id="DejaVuSans-102"/>
      <path d="M 41.109375 46.296875 
Q 39.59375 47.171875 37.8125 47.578125 
Q 36.03125 48 33.890625 48 
Q 26.265625 48 22.1875 43.046875 
Q 18.109375 38.09375 18.109375 28.8125 
L 18.109375 0 
L 9.078125 0 
L 9.078125 54.6875 
L 18.109375 54.6875 
L 18.109375 46.1875 
Q 20.953125 51.171875 25.484375 53.578125 
Q 30.03125 56 36.53125 56 
Q 37.453125 56 38.578125 55.875 
Q 39.703125 55.765625 41.0625 55.515625 
z
" id="DejaVuSans-114"/>
      <path d="M 56.203125 29.59375 
L 56.203125 25.203125 
L 14.890625 25.203125 
Q 15.484375 15.921875 20.484375 11.0625 
Q 25.484375 6.203125 34.421875 6.203125 
Q 39.59375 6.203125 44.453125 7.46875 
Q 49.3125 8.734375 54.109375 11.28125 
L 54.109375 2.78125 
Q 49.265625 0.734375 44.1875 -0.34375 
Q 39.109375 -1.421875 33.890625 -1.421875 
Q 20.796875 -1.421875 13.15625 6.1875 
Q 5.515625 13.8125 5.515625 26.8125 
Q 5.515625 40.234375 12.765625 48.109375 
Q 20.015625 56 32.328125 56 
Q 43.359375 56 49.78125 48.890625 
Q 56.203125 41.796875 56.203125 29.59375 
z
M 47.21875 32.234375 
Q 47.125 39.59375 43.09375 43.984375 
Q 39.0625 48.390625 32.421875 48.390625 
Q 24.90625 48.390625 20.390625 44.140625 
Q 15.875 39.890625 15.1875 32.171875 
z
" id="DejaVuSans-101"/>
      <path d="M 14.796875 27.296875 
Q 14.796875 17.390625 18.875 11.75 
Q 22.953125 6.109375 30.078125 6.109375 
Q 37.203125 6.109375 41.296875 11.75 
Q 45.40625 17.390625 45.40625 27.296875 
Q 45.40625 37.203125 41.296875 42.84375 
Q 37.203125 48.484375 30.078125 48.484375 
Q 22.953125 48.484375 18.875 42.84375 
Q 14.796875 37.203125 14.796875 27.296875 
z
M 45.40625 8.203125 
Q 42.578125 3.328125 38.25 0.953125 
Q 33.9375 -1.421875 27.875 -1.421875 
Q 17.96875 -1.421875 11.734375 6.484375 
Q 5.515625 14.40625 5.515625 27.296875 
Q 5.515625 40.1875 11.734375 48.09375 
Q 17.96875 56 27.875 56 
Q 33.9375 56 38.25 53.625 
Q 42.578125 51.265625 45.40625 46.390625 
L 45.40625 54.6875 
L 54.390625 54.6875 
L 54.390625 -20.796875 
L 45.40625 -20.796875 
z
" id="DejaVuSans-113"/>
      <path d="M 8.5 21.578125 
L 8.5 54.6875 
L 17.484375 54.6875 
L 17.484375 21.921875 
Q 17.484375 14.15625 20.5 10.265625 
Q 23.53125 6.390625 29.59375 6.390625 
Q 36.859375 6.390625 41.078125 11.03125 
Q 45.3125 15.671875 45.3125 23.6875 
L 45.3125 54.6875 
L 54.296875 54.6875 
L 54.296875 0 
L 45.3125 0 
L 45.3125 8.40625 
Q 42.046875 3.421875 37.71875 1 
Q 33.40625 -1.421875 27.6875 -1.421875 
Q 18.265625 -1.421875 13.375 4.4375 
Q 8.5 10.296875 8.5 21.578125 
z
M 31.109375 56 
z
" id="DejaVuSans-117"/>
      <path d="M 54.890625 33.015625 
L 54.890625 0 
L 45.90625 0 
L 45.90625 32.71875 
Q 45.90625 40.484375 42.875 44.328125 
Q 39.84375 48.1875 33.796875 48.1875 
Q 26.515625 48.1875 22.3125 43.546875 
Q 18.109375 38.921875 18.109375 30.90625 
L 18.109375 0 
L 9.078125 0 
L 9.078125 54.6875 
L 18.109375 54.6875 
L 18.109375 46.1875 
Q 21.34375 51.125 25.703125 53.5625 
Q 30.078125 56 35.796875 56 
Q 45.21875 56 50.046875 50.171875 
Q 54.890625 44.34375 54.890625 33.015625 
z
" id="DejaVuSans-110"/>
      <path d="M 48.78125 52.59375 
L 48.78125 44.1875 
Q 44.96875 46.296875 41.140625 47.34375 
Q 37.3125 48.390625 33.40625 48.390625 
Q 24.65625 48.390625 19.8125 42.84375 
Q 14.984375 37.3125 14.984375 27.296875 
Q 14.984375 17.28125 19.8125 11.734375 
Q 24.65625 6.203125 33.40625 6.203125 
Q 37.3125 6.203125 41.140625 7.25 
Q 44.96875 8.296875 48.78125 10.40625 
L 48.78125 2.09375 
Q 45.015625 0.34375 40.984375 -0.53125 
Q 36.96875 -1.421875 32.421875 -1.421875 
Q 20.0625 -1.421875 12.78125 6.34375 
Q 5.515625 14.109375 5.515625 27.296875 
Q 5.515625 40.671875 12.859375 48.328125 
Q 20.21875 56 33.015625 56 
Q 37.15625 56 41.109375 55.140625 
Q 45.0625 54.296875 48.78125 52.59375 
z
" id="DejaVuSans-99"/>
      <path d="M 32.171875 -5.078125 
Q 28.375 -14.84375 24.75 -17.8125 
Q 21.140625 -20.796875 15.09375 -20.796875 
L 7.90625 -20.796875 
L 7.90625 -13.28125 
L 13.1875 -13.28125 
Q 16.890625 -13.28125 18.9375 -11.515625 
Q 21 -9.765625 23.484375 -3.21875 
L 25.09375 0.875 
L 2.984375 54.6875 
L 12.5 54.6875 
L 29.59375 11.921875 
L 46.6875 54.6875 
L 56.203125 54.6875 
z
" id="DejaVuSans-121"/>
      <path d="M 8.59375 75.984375 
L 29.296875 75.984375 
L 29.296875 69 
L 17.578125 69 
L 17.578125 -6.203125 
L 29.296875 -6.203125 
L 29.296875 -13.1875 
L 8.59375 -13.1875 
z
" id="DejaVuSans-91"/>
      <path d="M -1.3125 -20.796875 
L 13.375 54.6875 
L 22.40625 54.6875 
L 15.765625 20.65625 
Q 15.578125 19.625 15.421875 18.359375 
Q 15.28125 17.09375 15.28125 15.828125 
Q 15.28125 11.28125 18.140625 8.828125 
Q 21 6.390625 26.3125 6.390625 
Q 33.546875 6.390625 37.984375 10.484375 
Q 42.4375 14.59375 44 22.796875 
L 50.203125 54.6875 
L 59.1875 54.6875 
L 51.03125 12.640625 
Q 50.828125 11.71875 50.75 11.03125 
Q 50.6875 10.359375 50.6875 9.8125 
Q 50.6875 8.296875 51.296875 7.59375 
Q 51.90625 6.890625 53.21875 6.890625 
Q 53.71875 6.890625 54.5625 7.125 
Q 55.421875 7.375 56.984375 8.015625 
L 55.609375 0.78125 
Q 53.46875 -0.296875 51.515625 -0.859375 
Q 49.5625 -1.421875 47.703125 -1.421875 
Q 44.484375 -1.421875 42.65625 0.625 
Q 40.828125 2.6875 40.828125 6.296875 
Q 38.09375 2.390625 34.296875 0.484375 
Q 30.515625 -1.421875 25.390625 -1.421875 
Q 20.84375 -1.421875 17.453125 0.671875 
Q 14.0625 2.78125 12.984375 6.203125 
L 7.71875 -20.796875 
z
" id="DejaVuSans-Oblique-956"/>
      <path d="M 89.796875 33.015625 
L 83.40625 0 
L 74.421875 0 
L 80.71875 32.71875 
Q 81.109375 34.8125 81.296875 36.328125 
Q 81.5 37.84375 81.5 38.921875 
Q 81.5 43.3125 79.046875 45.75 
Q 76.609375 48.1875 72.21875 48.1875 
Q 65.671875 48.1875 60.546875 43.28125 
Q 55.421875 38.375 53.90625 30.515625 
L 47.90625 0 
L 38.921875 0 
L 45.3125 32.71875 
Q 45.703125 34.515625 45.890625 36.046875 
Q 46.09375 37.59375 46.09375 38.8125 
Q 46.09375 43.265625 43.65625 45.71875 
Q 41.21875 48.1875 36.921875 48.1875 
Q 30.28125 48.1875 25.140625 43.28125 
Q 20.015625 38.375 18.5 30.515625 
L 12.5 0 
L 3.515625 0 
L 14.203125 54.6875 
L 23.1875 54.6875 
L 21.484375 46.1875 
Q 25.140625 50.984375 30.046875 53.484375 
Q 34.96875 56 40.578125 56 
Q 46.53125 56 50.359375 52.875 
Q 54.203125 49.75 54.984375 44.1875 
Q 59.078125 49.953125 64.46875 52.96875 
Q 69.875 56 75.875 56 
Q 82.90625 56 86.734375 51.953125 
Q 90.578125 47.90625 90.578125 40.484375 
Q 90.578125 38.875 90.375 36.9375 
Q 90.1875 35.015625 89.796875 33.015625 
z
" id="DejaVuSans-Oblique-109"/>
      <path d="M 10.59375 35.5 
L 73.1875 35.5 
L 73.1875 27.203125 
L 10.59375 27.203125 
z
" id="DejaVuSans-8722"/>
      <path d="M 30.421875 75.984375 
L 30.421875 -13.1875 
L 9.71875 -13.1875 
L 9.71875 -6.203125 
L 21.390625 -6.203125 
L 21.390625 69 
L 9.71875 69 
L 9.71875 75.984375 
z
" id="DejaVuSans-93"/>
     </defs>
     <g transform="translate(634.06285 689.74825)scale(0.2 -0.2)">
      <use transform="translate(0 0.684375)" xlink:href="#DejaVuSans-115"/>
      <use transform="translate(52.099609 0.684375)" xlink:href="#DejaVuSans-112"/>
      <use transform="translate(115.576172 0.684375)" xlink:href="#DejaVuSans-97"/>
      <use transform="translate(176.855469 0.684375)" xlink:href="#DejaVuSans-116"/>
      <use transform="translate(216.064453 0.684375)" xlink:href="#DejaVuSans-105"/>
      <use transform="translate(243.847656 0.684375)" xlink:href="#DejaVuSans-97"/>
      <use transform="translate(305.126953 0.684375)" xlink:href="#DejaVuSans-108"/>
      <use transform="translate(332.910156 0.684375)" xlink:href="#DejaVuSans-32"/>
      <use transform="translate(364.697266 0.684375)" xlink:href="#DejaVuSans-102"/>
      <use transform="translate(399.902344 0.684375)" xlink:href="#DejaVuSans-114"/>
      <use transform="translate(441.015625 0.684375)" xlink:href="#DejaVuSans-101"/>
      <use transform="translate(502.539062 0.684375)" xlink:href="#DejaVuSans-113"/>
      <use transform="translate(566.015625 0.684375)" xlink:href="#DejaVuSans-117"/>
      <use transform="translate(629.394531 0.684375)" xlink:href="#DejaVuSans-101"/>
      <use transform="translate(690.917969 0.684375)" xlink:href="#DejaVuSans-110"/>
      <use transform="translate(754.296875 0.684375)" xlink:href="#DejaVuSans-99"/>
      <use transform="translate(809.277344 0.684375)" xlink:href="#DejaVuSans-121"/>
      <use transform="translate(868.457031 0.684375)" xlink:href="#DejaVuSans-32"/>
      <use transform="translate(900.244141 0.684375)" xlink:href="#DejaVuSans-91"/>
      <use transform="translate(939.257812 0.684375)" xlink:href="#DejaVuSans-Oblique-956"/>
      <use transform="translate(1002.880859 0.684375)" xlink:href="#DejaVuSans-Oblique-109"/>
      <use transform="translate(1104.942865 38.965625)scale(0.7)" xlink:href="#DejaVuSans-8722"/>
      <use transform="translate(1163.595208 38.965625)scale(0.7)" xlink:href="#DejaVuSans-49"/>
      <use transform="translate(1210.865716 0.684375)" xlink:href="#DejaVuSans-93"/>
     </g>
    </g>
   </g>
   <g id="matplotlib.axis_2">
    <g id="ytick_1">
     <g id="line2d_9">
      <defs>
       <path d="M 0 0 
L -3.5 0 
" id="m16030cb7e8" style="stroke:#000000;stroke-width:0.8;"/>
      </defs>
      <g>
       <use style="stroke:#000000;stroke-width:0.8;" x="99.7257" xlink:href="#m16030cb7e8" y="566.963405"/>
      </g>
     </g>
     <g id="text_10">
      <!-- $\mathdefault{10^{-6}}$ -->
      <defs>
       <path d="M 33.015625 40.375 
Q 26.375 40.375 22.484375 35.828125 
Q 18.609375 31.296875 18.609375 23.390625 
Q 18.609375 15.53125 22.484375 10.953125 
Q 26.375 6.390625 33.015625 6.390625 
Q 39.65625 6.390625 43.53125 10.953125 
Q 47.40625 15.53125 47.40625 23.390625 
Q 47.40625 31.296875 43.53125 35.828125 
Q 39.65625 40.375 33.015625 40.375 
z
M 52.59375 71.296875 
L 52.59375 62.3125 
Q 48.875 64.0625 45.09375 64.984375 
Q 41.3125 65.921875 37.59375 65.921875 
Q 27.828125 65.921875 22.671875 59.328125 
Q 17.53125 52.734375 16.796875 39.40625 
Q 19.671875 43.65625 24.015625 45.921875 
Q 28.375 48.1875 33.59375 48.1875 
Q 44.578125 48.1875 50.953125 41.515625 
Q 57.328125 34.859375 57.328125 23.390625 
Q 57.328125 12.15625 50.6875 5.359375 
Q 44.046875 -1.421875 33.015625 -1.421875 
Q 20.359375 -1.421875 13.671875 8.265625 
Q 6.984375 17.96875 6.984375 36.375 
Q 6.984375 53.65625 15.1875 63.9375 
Q 23.390625 74.21875 37.203125 74.21875 
Q 40.921875 74.21875 44.703125 73.484375 
Q 48.484375 72.75 52.59375 71.296875 
z
" id="DejaVuSans-54"/>
      </defs>
      <g transform="translate(45.7257 574.561842)scale(0.2 -0.2)">
       <use transform="translate(0 0.765625)" xlink:href="#DejaVuSans-49"/>
       <use transform="translate(63.623047 0.765625)" xlink:href="#DejaVuSans-48"/>
       <use transform="translate(128.203125 39.046875)scale(0.7)" xlink:href="#DejaVuSans-8722"/>
       <use transform="translate(186.855469 39.046875)scale(0.7)" xlink:href="#DejaVuSans-54"/>
      </g>
     </g>
    </g>
    <g id="ytick_2">
     <g id="line2d_10">
      <g>
       <use style="stroke:#000000;stroke-width:0.8;" x="99.7257" xlink:href="#m16030cb7e8" y="433.612843"/>
      </g>
     </g>
     <g id="text_11">
      <!-- $\mathdefault{10^{-4}}$ -->
      <defs>
       <path d="M 37.796875 64.3125 
L 12.890625 25.390625 
L 37.796875 25.390625 
z
M 35.203125 72.90625 
L 47.609375 72.90625 
L 47.609375 25.390625 
L 58.015625 25.390625 
L 58.015625 17.1875 
L 47.609375 17.1875 
L 47.609375 0 
L 37.796875 0 
L 37.796875 17.1875 
L 4.890625 17.1875 
L 4.890625 26.703125 
z
" id="DejaVuSans-52"/>
      </defs>
      <g transform="translate(45.7257 441.211281)scale(0.2 -0.2)">
       <use transform="translate(0 0.684375)" xlink:href="#DejaVuSans-49"/>
       <use transform="translate(63.623047 0.684375)" xlink:href="#DejaVuSans-48"/>
       <use transform="translate(128.203125 38.965625)scale(0.7)" xlink:href="#DejaVuSans-8722"/>
       <use transform="translate(186.855469 38.965625)scale(0.7)" xlink:href="#DejaVuSans-52"/>
      </g>
     </g>
    </g>
    <g id="ytick_3">
     <g id="line2d_11">
      <g>
       <use style="stroke:#000000;stroke-width:0.8;" x="99.7257" xlink:href="#m16030cb7e8" y="300.262282"/>
      </g>
     </g>
     <g id="text_12">
      <!-- $\mathdefault{10^{-2}}$ -->
      <g transform="translate(45.7257 307.86072)scale(0.2 -0.2)">
       <use transform="translate(0 0.765625)" xlink:href="#DejaVuSans-49"/>
       <use transform="translate(63.623047 0.765625)" xlink:href="#DejaVuSans-48"/>
       <use transform="translate(128.203125 39.046875)scale(0.7)" xlink:href="#DejaVuSans-8722"/>
       <use transform="translate(186.855469 39.046875)scale(0.7)" xlink:href="#DejaVuSans-50"/>
      </g>
     </g>
    </g>
    <g id="ytick_4">
     <g id="line2d_12">
      <g>
       <use style="stroke:#000000;stroke-width:0.8;" x="99.7257" xlink:href="#m16030cb7e8" y="166.911721"/>
      </g>
     </g>
     <g id="text_13">
      <!-- $\mathdefault{10^{0}}$ -->
      <g transform="translate(57.5257 174.510158)scale(0.2 -0.2)">
       <use transform="translate(0 0.765625)" xlink:href="#DejaVuSans-49"/>
       <use transform="translate(63.623047 0.765625)" xlink:href="#DejaVuSans-48"/>
       <use transform="translate(128.203125 39.046875)scale(0.7)" xlink:href="#DejaVuSans-48"/>
      </g>
     </g>
    </g>
    <g id="ytick_5">
     <g id="line2d_13">
      <g>
       <use style="stroke:#000000;stroke-width:0.8;" x="99.7257" xlink:href="#m16030cb7e8" y="33.56116"/>
      </g>
     </g>
     <g id="text_14">
      <!-- $\mathdefault{10^{2}}$ -->
      <g transform="translate(57.5257 41.159597)scale(0.2 -0.2)">
       <use transform="translate(0 0.765625)" xlink:href="#DejaVuSans-49"/>
       <use transform="translate(63.623047 0.765625)" xlink:href="#DejaVuSans-48"/>
       <use transform="translate(128.203125 39.046875)scale(0.7)" xlink:href="#DejaVuSans-50"/>
      </g>
     </g>
    </g>
    <g id="text_15">
     <!-- power spectrum -->
     <defs>
      <path d="M 30.609375 48.390625 
Q 23.390625 48.390625 19.1875 42.75 
Q 14.984375 37.109375 14.984375 27.296875 
Q 14.984375 17.484375 19.15625 11.84375 
Q 23.34375 6.203125 30.609375 6.203125 
Q 37.796875 6.203125 41.984375 11.859375 
Q 46.1875 17.53125 46.1875 27.296875 
Q 46.1875 37.015625 41.984375 42.703125 
Q 37.796875 48.390625 30.609375 48.390625 
z
M 30.609375 56 
Q 42.328125 56 49.015625 48.375 
Q 55.71875 40.765625 55.71875 27.296875 
Q 55.71875 13.875 49.015625 6.21875 
Q 42.328125 -1.421875 30.609375 -1.421875 
Q 18.84375 -1.421875 12.171875 6.21875 
Q 5.515625 13.875 5.515625 27.296875 
Q 5.515625 40.765625 12.171875 48.375 
Q 18.84375 56 30.609375 56 
z
" id="DejaVuSans-111"/>
      <path d="M 4.203125 54.6875 
L 13.1875 54.6875 
L 24.421875 12.015625 
L 35.59375 54.6875 
L 46.1875 54.6875 
L 57.421875 12.015625 
L 68.609375 54.6875 
L 77.59375 54.6875 
L 63.28125 0 
L 52.6875 0 
L 40.921875 44.828125 
L 29.109375 0 
L 18.5 0 
z
" id="DejaVuSans-119"/>
      <path d="M 52 44.1875 
Q 55.375 50.25 60.0625 53.125 
Q 64.75 56 71.09375 56 
Q 79.640625 56 84.28125 50.015625 
Q 88.921875 44.046875 88.921875 33.015625 
L 88.921875 0 
L 79.890625 0 
L 79.890625 32.71875 
Q 79.890625 40.578125 77.09375 44.375 
Q 74.3125 48.1875 68.609375 48.1875 
Q 61.625 48.1875 57.5625 43.546875 
Q 53.515625 38.921875 53.515625 30.90625 
L 53.515625 0 
L 44.484375 0 
L 44.484375 32.71875 
Q 44.484375 40.625 41.703125 44.40625 
Q 38.921875 48.1875 33.109375 48.1875 
Q 26.21875 48.1875 22.15625 43.53125 
Q 18.109375 38.875 18.109375 30.90625 
L 18.109375 0 
L 9.078125 0 
L 9.078125 54.6875 
L 18.109375 54.6875 
L 18.109375 46.1875 
Q 21.1875 51.21875 25.484375 53.609375 
Q 29.78125 56 35.6875 56 
Q 41.65625 56 45.828125 52.96875 
Q 50 49.953125 52 44.1875 
z
" id="DejaVuSans-109"/>
     </defs>
     <g transform="translate(37.566325 412.90225)rotate(-90)scale(0.2 -0.2)">
      <use xlink:href="#DejaVuSans-112"/>
      <use x="63.476562" xlink:href="#DejaVuSans-111"/>
      <use x="124.658203" xlink:href="#DejaVuSans-119"/>
      <use x="206.445312" xlink:href="#DejaVuSans-101"/>
      <use x="267.96875" xlink:href="#DejaVuSans-114"/>
      <use x="309.082031" xlink:href="#DejaVuSans-32"/>
      <use x="340.869141" xlink:href="#DejaVuSans-115"/>
      <use x="392.96875" xlink:href="#DejaVuSans-112"/>
      <use x="456.445312" xlink:href="#DejaVuSans-101"/>
      <use x="517.96875" xlink:href="#DejaVuSans-99"/>
      <use x="572.949219" xlink:href="#DejaVuSans-116"/>
      <use x="612.158203" xlink:href="#DejaVuSans-114"/>
      <use x="653.271484" xlink:href="#DejaVuSans-117"/>
      <use x="716.650391" xlink:href="#DejaVuSans-109"/>
     </g>
    </g>
   </g>
   <g id="line2d_14">
    <path clip-path="url(#pbb0096244e)" d="M 377.432324 166.911721 
L 377.432324 721 
" style="fill:none;stroke:#ff7f0e;stroke-linecap:square;stroke-width:1.5;"/>
   </g>
   <g id="line2d_15">
    <path clip-path="url(#pbb0096244e)" d="M 211.276192 166.911721 
L 211.276192 721 
" style="fill:none;stroke:#e377c2;stroke-linecap:square;stroke-width:1.5;"/>
   </g>
   <g id="line2d_16">
    <path clip-path="url(#pbb0096244e)" d="M 161.037085 83.950722 
L 162.408704 258.022788 
L 163.780322 303.091625 
L 165.151941 314.00367 
L 166.52356 301.991837 
L 167.895179 283.232709 
L 169.266797 272.801386 
L 170.638416 267.343933 
L 172.010035 260.982193 
L 173.381654 260.502563 
L 176.124891 278.563019 
L 177.49651 279.976319 
L 178.868129 276.186891 
L 180.239747 282.163223 
L 181.611366 289.267058 
L 182.982985 295.193067 
L 185.726222 318.834052 
L 187.097841 326.415924 
L 188.46946 329.332613 
L 189.841079 330.625239 
L 191.212697 331.751007 
L 192.584316 333.067667 
L 193.955935 333.796249 
L 195.327554 334.769465 
L 196.699172 334.296692 
L 198.070791 334.582062 
L 199.44241 335.351665 
L 200.814029 334.538074 
L 202.185648 335.905561 
L 203.557266 335.268913 
L 204.928885 336.3534 
L 206.300504 336.808005 
L 210.41536 336.892605 
L 211.786979 336.975523 
L 213.158598 337.514427 
L 214.530216 337.477993 
L 218.645073 338.323963 
L 220.016691 338.022273 
L 221.38831 338.535658 
L 222.759929 338.480936 
L 224.131548 339.161276 
L 226.874785 339.195314 
L 228.246404 339.037289 
L 229.618023 339.746132 
L 230.989641 339.428439 
L 232.36126 339.369428 
L 233.732879 340.157688 
L 235.104498 339.973192 
L 237.847735 340.425654 
L 239.219354 340.174805 
L 240.590973 340.202187 
L 241.962591 340.644196 
L 243.33421 340.484126 
L 244.705829 340.820038 
L 246.077448 341.306123 
L 247.449066 341.014918 
L 248.820685 341.885921 
L 250.192304 341.741361 
L 251.563923 341.762244 
L 252.935541 342.113121 
L 254.30716 342.067528 
L 255.678779 342.568416 
L 257.050398 342.490433 
L 259.793635 342.716232 
L 261.165254 343.251221 
L 262.536873 343.27381 
L 265.28011 343.652372 
L 266.651729 344.191512 
L 268.023348 344.285043 
L 269.394967 345.271238 
L 270.766585 344.835482 
L 272.138204 345.50573 
L 273.509823 345.55639 
L 274.881442 345.912437 
L 276.25306 346.394587 
L 277.624679 346.619578 
L 278.996298 346.962064 
L 280.367917 347.091421 
L 281.739535 347.47799 
L 283.111154 347.535888 
L 285.854392 348.220902 
L 287.22601 348.356394 
L 288.597629 348.661508 
L 289.969248 349.099388 
L 291.340867 349.280743 
L 292.712485 349.732046 
L 294.084104 349.970012 
L 296.827342 350.651668 
L 298.19896 350.776833 
L 299.570579 351.514545 
L 300.942198 351.896543 
L 303.685435 352.036721 
L 306.428673 353.009807 
L 307.800292 353.448037 
L 311.915148 354.046025 
L 313.286767 353.932891 
L 314.658386 354.174761 
L 316.030004 354.790045 
L 317.401623 354.531315 
L 321.516479 355.648326 
L 322.888098 356.40524 
L 327.002954 358.063882 
L 329.746192 359.104142 
L 331.117811 359.245415 
L 332.489429 359.971583 
L 333.861048 360.303434 
L 335.232667 360.893797 
L 336.604286 361.292749 
L 339.347523 361.922769 
L 340.719142 362.541883 
L 342.090761 362.971302 
L 343.462379 363.2083 
L 344.833998 363.611889 
L 346.205617 364.219183 
L 347.577236 364.666444 
L 348.948854 364.95023 
L 350.320473 365.732577 
L 353.063711 366.495159 
L 354.435329 367.096568 
L 355.806948 367.477971 
L 357.178567 368.27114 
L 358.550186 368.531731 
L 361.293423 369.851773 
L 362.665042 370.143764 
L 364.036661 370.614402 
L 368.151517 372.469184 
L 369.523136 372.95644 
L 370.894755 373.815773 
L 372.266373 374.391181 
L 373.637992 374.583169 
L 375.009611 375.596664 
L 376.38123 376.187354 
L 377.752848 376.997482 
L 379.124467 380.552718 
L 381.867705 397.951111 
L 383.239323 409.371916 
L 384.610942 426.268498 
L 385.982561 445.238164 
L 387.35418 450.936905 
L 388.725798 453.62684 
L 390.097417 455.190386 
L 391.469036 456.416894 
L 392.840655 457.261724 
L 394.212273 458.275105 
L 398.32713 460.457657 
L 401.070367 461.717331 
L 402.441986 462.087202 
L 403.813605 462.69916 
L 406.556842 463.618297 
L 409.30008 464.105589 
L 410.671698 464.647186 
L 412.043317 464.840776 
L 413.414936 465.179287 
L 420.27303 466.172187 
L 421.644649 466.966098 
L 427.131124 468.055922 
L 428.502742 468.666872 
L 432.617599 469.049762 
L 433.989217 469.802131 
L 435.360836 469.656562 
L 436.732455 469.833465 
L 438.104074 469.628839 
L 439.475692 469.839314 
L 440.847311 470.268484 
L 443.590549 470.858261 
L 444.962167 470.844931 
L 449.077024 471.392052 
L 451.820261 472.32639 
L 453.19188 472.432506 
L 457.306736 473.256847 
L 458.678355 473.237105 
L 460.049974 473.554069 
L 461.421592 473.708228 
L 464.16483 474.316014 
L 465.536449 474.291898 
L 466.908067 474.621808 
L 468.279686 474.762892 
L 469.651305 475.12125 
L 471.022924 475.358217 
L 472.394542 475.472468 
L 475.13778 475.944885 
L 476.509399 476.335213 
L 477.881018 476.249071 
L 481.995874 477.340178 
L 487.482349 478.391264 
L 488.853968 478.728855 
L 497.08368 479.674406 
L 498.455299 480.169079 
L 499.826918 479.882607 
L 501.198536 480.248872 
L 505.313393 480.51131 
L 508.05663 480.953941 
L 509.428249 480.765087 
L 510.799868 481.021672 
L 513.543105 481.213102 
L 514.914724 481.484408 
L 517.657961 481.344368 
L 520.401199 481.369872 
L 521.772818 481.62221 
L 523.144436 481.661284 
L 524.516055 481.480284 
L 525.887674 481.557472 
L 528.630912 481.340856 
L 530.00253 481.365915 
L 531.374149 481.561981 
L 534.117387 481.424138 
L 535.489005 481.618594 
L 536.860624 481.599314 
L 538.232243 481.769505 
L 539.603862 481.759248 
L 540.97548 481.529537 
L 546.461955 481.889684 
L 547.833574 482.160642 
L 550.576812 482.086338 
L 551.94843 482.184061 
L 553.320049 482.02455 
L 554.691668 482.286782 
L 558.806524 482.294369 
L 560.178143 482.336075 
L 561.549762 482.691055 
L 562.92138 482.414142 
L 565.664618 482.657807 
L 567.036237 482.485874 
L 568.407855 482.740855 
L 569.779474 482.696751 
L 572.522712 483.00212 
L 573.89433 482.716949 
L 575.265949 482.831976 
L 576.637568 482.784173 
L 578.009187 483.085984 
L 579.380805 482.949462 
L 584.867281 482.812283 
L 586.238899 483.008473 
L 587.610518 483.075233 
L 588.982137 483.330496 
L 591.725374 483.014835 
L 593.096993 483.3156 
L 594.468612 483.20714 
L 598.583468 483.452629 
L 599.955087 483.357987 
L 605.441562 483.443841 
L 608.184799 483.353877 
L 610.928037 483.48191 
L 612.299656 483.534679 
L 613.671274 483.432295 
L 615.042893 483.572783 
L 616.414512 483.400437 
L 617.786131 483.79664 
L 619.157749 483.508621 
L 621.900987 483.609422 
L 626.015843 483.510716 
L 628.759081 483.639869 
L 630.130699 483.415286 
L 631.502318 483.571395 
L 632.873937 483.582424 
L 634.245556 483.367812 
L 635.617175 483.486404 
L 636.988793 483.408883 
L 638.360412 483.51263 
L 639.732031 483.482657 
L 641.10365 483.613873 
L 642.475268 483.576987 
L 643.846887 483.388489 
L 645.218506 483.444687 
L 646.590125 483.311429 
L 647.961743 483.487355 
L 649.333362 483.271549 
L 654.819837 483.403866 
L 656.191456 483.018268 
L 657.563075 483.433327 
L 658.934693 483.236643 
L 660.306312 483.376964 
L 661.677931 483.147514 
L 663.04955 483.057115 
L 664.421168 483.246758 
L 669.907643 483.02199 
L 671.279262 483.162429 
L 672.650881 482.959904 
L 676.765737 482.984078 
L 679.508975 482.805325 
L 687.738687 482.876081 
L 689.110306 482.630192 
L 690.481925 482.804691 
L 691.853544 482.552294 
L 700.083256 482.247699 
L 701.454875 482.502785 
L 702.826494 482.264088 
L 706.94135 482.347637 
L 708.312969 482.063457 
L 709.684587 481.955942 
L 711.056206 482.098968 
L 713.799444 481.79684 
L 715.171062 481.849471 
L 719.285919 481.731837 
L 723.400775 481.660318 
L 724.772394 481.462605 
L 727.515631 481.410517 
L 728.88725 481.402247 
L 730.258869 481.260738 
L 731.630487 481.301598 
L 735.745344 480.992764 
L 738.488581 481.038006 
L 741.231819 480.54596 
L 742.603437 480.804155 
L 743.975056 480.488477 
L 745.346675 480.37712 
L 746.718294 480.550012 
L 748.089913 480.357162 
L 749.461531 480.312346 
L 752.204769 479.901035 
L 753.576388 479.897956 
L 759.062863 478.381466 
L 760.434481 478.192308 
L 761.8061 477.72969 
L 763.177719 477.763554 
L 764.549338 477.644376 
L 765.920956 477.222657 
L 767.292575 477.466239 
L 768.664194 476.888179 
L 770.035813 476.925732 
L 771.407431 476.458104 
L 772.77905 476.431341 
L 775.522288 475.909501 
L 776.893906 476.020271 
L 778.265525 475.958175 
L 779.637144 476.065061 
L 781.008763 475.691278 
L 782.380381 475.696616 
L 783.752 475.291858 
L 785.123619 475.104457 
L 786.495238 475.256474 
L 787.866856 474.834803 
L 790.610094 474.944846 
L 791.981713 474.080274 
L 793.353331 474.986029 
L 794.72495 474.455316 
L 796.096569 474.305736 
L 797.468188 474.458189 
L 801.583044 474.23138 
L 802.954663 473.81793 
L 804.326282 473.740401 
L 805.6979 474.046935 
L 807.069519 473.347329 
L 808.441138 473.854584 
L 809.812757 473.560778 
L 811.184375 473.685302 
L 812.555994 473.640045 
L 813.927613 473.848996 
L 815.299232 473.350888 
L 816.67085 473.264615 
L 822.157325 473.379704 
L 824.900563 472.882377 
L 826.272182 473.076896 
L 827.6438 472.846285 
L 829.015419 472.95624 
L 831.758657 472.592962 
L 833.130275 472.740639 
L 834.501894 473.048691 
L 835.873513 472.966473 
L 837.245132 472.643748 
L 838.61675 472.742475 
L 841.359988 472.407828 
L 842.731607 472.578277 
L 844.103225 472.4164 
L 846.846463 472.595095 
L 848.218082 472.212025 
L 849.5897 472.557775 
L 850.961319 472.212771 
L 852.332938 472.250907 
L 855.076176 471.740413 
L 856.447794 472.125972 
L 857.819413 472.249958 
L 864.677507 471.645534 
L 866.049126 471.723923 
L 867.420744 471.474062 
L 868.792363 471.582557 
L 870.163982 471.312281 
L 872.907219 471.343071 
L 874.278838 471.021421 
L 875.650457 471.117431 
L 878.393694 470.98623 
L 879.765313 470.854528 
L 881.136932 470.878969 
L 882.508551 470.58846 
L 885.251788 470.35756 
L 886.623407 470.434082 
L 887.995026 470.07874 
L 889.366644 470.214156 
L 892.109882 469.779469 
L 893.481501 469.75483 
L 894.853119 469.369075 
L 896.224738 469.637019 
L 900.339594 469.271436 
L 901.711213 469.410106 
L 903.082832 469.350697 
L 904.454451 469.13735 
L 905.826069 469.071628 
L 907.197688 468.675541 
L 908.569307 469.099841 
L 909.940926 468.704165 
L 911.312545 468.675522 
L 912.684163 468.906681 
L 914.055782 468.464826 
L 915.427401 468.249312 
L 916.79902 468.361944 
L 923.657113 467.785732 
L 925.028732 467.932584 
L 927.77197 467.678815 
L 929.143588 467.795753 
L 930.515207 467.376086 
L 931.886826 467.474068 
L 933.258445 467.424406 
L 936.001682 467.663038 
L 937.373301 467.646062 
L 938.74492 467.84768 
L 940.116538 467.663503 
L 941.488157 467.890396 
L 942.859776 467.694086 
L 945.603013 467.628779 
L 948.346251 467.850001 
L 949.71787 467.774167 
L 952.461107 468.06804 
L 953.832726 467.963644 
L 955.204345 468.102649 
L 956.575963 467.93521 
L 959.319201 468.374408 
L 960.69082 468.050616 
L 962.062439 468.217789 
L 968.920532 468.261539 
L 970.292151 468.206977 
L 973.035389 468.390961 
L 974.407007 468.277136 
L 978.521864 468.658342 
L 979.893482 468.369365 
L 981.265101 468.621266 
L 982.63672 468.553973 
L 984.008339 468.665188 
L 985.379957 468.618849 
L 988.123195 468.761379 
L 989.494814 468.489882 
L 990.866432 468.4609 
L 992.238051 468.583484 
L 996.352907 468.632981 
L 997.724526 468.241697 
L 1001.839382 468.661634 
L 1003.211001 468.451506 
L 1005.954239 468.449562 
L 1007.325857 468.279507 
L 1010.069095 467.405323 
L 1012.812332 466.975432 
L 1014.183951 466.460406 
L 1015.55557 466.355323 
L 1016.927189 466.023896 
L 1018.298808 465.937667 
L 1019.670426 465.568306 
L 1021.042045 465.509164 
L 1023.785283 464.903207 
L 1025.156901 464.767496 
L 1027.900139 464.31189 
L 1029.271758 464.112607 
L 1030.643376 463.797247 
L 1032.014995 463.72764 
L 1033.386614 463.397298 
L 1034.758233 463.26844 
L 1037.50147 462.590348 
L 1038.873089 462.684738 
L 1040.244708 462.298136 
L 1041.616326 462.180739 
L 1042.987945 461.79184 
L 1044.359564 461.5783 
L 1045.731183 461.238662 
L 1047.102801 461.06253 
L 1049.846039 460.210162 
L 1051.217658 460.097563 
L 1052.589276 459.80429 
L 1053.960895 459.214619 
L 1055.332514 459.118087 
L 1056.704133 458.814793 
L 1058.075751 458.731493 
L 1059.44737 458.196663 
L 1060.818989 458.045687 
L 1062.190608 457.549416 
L 1064.933845 456.907787 
L 1066.305464 456.796813 
L 1070.42032 455.896504 
L 1071.791939 455.674462 
L 1073.163558 455.227407 
L 1075.906795 455.07716 
L 1077.278414 454.734494 
L 1078.650033 454.725073 
L 1080.021652 454.373183 
L 1081.39327 454.60962 
L 1082.764889 454.355503 
L 1084.136508 454.428106 
L 1086.879745 453.536212 
L 1088.251364 453.466384 
L 1089.622983 453.280534 
L 1090.994602 453.531637 
L 1096.481077 452.826049 
L 1099.224314 452.936887 
L 1100.595933 452.998247 
L 1101.967552 452.793641 
L 1103.33917 453.027969 
L 1104.710789 452.590823 
L 1106.082408 452.653511 
L 1107.454027 452.862015 
L 1108.825645 452.296369 
L 1110.197264 452.738185 
L 1111.568883 452.323513 
L 1115.683739 452.233181 
L 1117.055358 452.149905 
L 1119.798595 451.684554 
L 1121.170214 452.168466 
L 1122.541833 451.72636 
L 1123.913452 451.88152 
L 1125.285071 451.912694 
L 1126.656689 451.295949 
L 1128.028308 452.008731 
L 1129.399927 451.612342 
L 1130.771546 452.03324 
L 1132.143164 451.313265 
L 1133.514783 452.207641 
L 1134.886402 451.880298 
L 1136.258021 451.798396 
L 1137.629639 452.362661 
L 1139.001258 451.529872 
L 1141.744496 452.185717 
L 1143.116114 451.787837 
L 1144.487733 452.107742 
L 1145.859352 451.839669 
L 1147.230971 452.12821 
L 1149.974208 452.190667 
L 1151.345827 451.799602 
L 1154.089064 452.421791 
L 1155.460683 451.954286 
L 1156.832302 452.07032 
L 1158.203921 452.518223 
L 1159.575539 452.1473 
L 1160.947158 452.656021 
L 1162.318777 452.003942 
L 1163.690396 452.351017 
L 1165.062014 452.059237 
L 1170.548489 452.383829 
L 1173.291727 452.393556 
L 1174.663346 452.474616 
L 1176.034964 452.149082 
L 1177.406583 452.539285 
L 1178.778202 452.316441 
L 1180.149821 452.504342 
L 1181.52144 452.491651 
L 1182.893058 452.30024 
L 1184.264677 452.455767 
L 1189.751152 451.642108 
L 1191.122771 451.820062 
L 1192.49439 451.552106 
L 1193.866008 452.098363 
L 1195.237627 451.764593 
L 1196.609246 451.595472 
L 1197.980865 451.232894 
L 1199.352483 451.101589 
L 1200.724102 451.18248 
L 1202.095721 451.035227 
L 1203.46734 451.018008 
L 1204.838958 451.437465 
L 1207.582196 451.6832 
L 1208.953815 450.975981 
L 1210.325433 451.586093 
L 1211.697052 451.028008 
L 1213.068671 451.087258 
L 1214.44029 451.012124 
L 1215.811908 450.653245 
L 1217.183527 450.424681 
L 1218.555146 450.062731 
L 1219.926765 449.889882 
L 1221.298383 450.468227 
L 1224.041621 451.000025 
L 1225.41324 450.801155 
L 1226.784858 450.136952 
L 1229.528096 450.267707 
L 1230.899715 449.075812 
L 1233.642952 450.056159 
L 1235.014571 449.836026 
L 1236.38619 451.004555 
L 1237.757809 451.885423 
L 1239.129427 451.615735 
L 1240.501046 452.187274 
L 1241.872665 452.247901 
L 1243.244284 452.189879 
L 1244.615902 451.966062 
L 1245.987521 452.302309 
L 1247.35914 452.987068 
L 1248.730759 453.231249 
L 1250.102377 453.950908 
L 1252.845615 453.730261 
L 1255.588852 453.206413 
L 1256.960471 453.841765 
L 1258.33209 453.816283 
L 1259.703709 454.401781 
L 1261.075327 454.652225 
L 1262.446946 454.463478 
L 1263.818565 454.544983 
L 1265.190184 454.996039 
L 1266.561802 455.284248 
L 1267.933421 455.227399 
L 1269.30504 456.035194 
L 1270.676659 456.260226 
L 1272.048277 456.026907 
L 1273.419896 456.041524 
L 1276.163134 457.755798 
L 1277.534752 457.254223 
L 1278.906371 457.410001 
L 1280.27799 457.882866 
L 1281.649609 457.605593 
L 1283.021227 457.813658 
L 1284.392846 457.874656 
L 1285.764465 458.074996 
L 1287.136084 458.043617 
L 1288.507703 458.381065 
L 1289.879321 458.551669 
L 1291.25094 458.03486 
L 1295.365796 458.847697 
L 1296.737415 459.046463 
L 1298.109034 458.724085 
L 1299.480653 458.669257 
L 1300.852271 458.967875 
L 1302.22389 459.001807 
L 1304.967128 458.789985 
L 1306.338746 459.332415 
L 1307.710365 458.781116 
L 1309.081984 459.559666 
L 1310.453603 458.716187 
L 1311.825221 459.603336 
L 1313.19684 459.493194 
L 1314.568459 459.555743 
L 1315.940078 458.925198 
L 1317.311696 459.409474 
L 1318.683315 459.636786 
L 1320.054934 459.437943 
L 1321.426553 459.93032 
L 1322.798171 460.186236 
L 1324.16979 459.503784 
L 1325.541409 459.033161 
L 1326.913028 459.359252 
L 1328.284646 460.860521 
L 1329.656265 459.909744 
L 1331.027884 459.67479 
L 1332.399503 460.382885 
L 1333.771121 460.212667 
L 1335.14274 460.170806 
L 1336.514359 460.482792 
L 1337.885978 460.364577 
L 1339.257597 460.574196 
L 1340.629215 462.099847 
L 1342.000834 459.93533 
L 1343.372453 460.646307 
L 1344.744072 460.544742 
L 1346.11569 460.139768 
L 1347.487309 460.289352 
L 1348.858928 459.960145 
L 1350.230547 459.430916 
L 1351.602165 459.521777 
L 1352.973784 460.23596 
L 1354.345403 459.892147 
L 1355.717022 459.046655 
L 1357.08864 449.451606 
L 1358.460259 311.436903 
L 1358.460259 311.436903 
" style="fill:none;stroke:#2ca02c;stroke-linecap:square;stroke-opacity:0.84;stroke-width:1.5;"/>
   </g>
   <g id="line2d_17">
    <path clip-path="url(#pbb0096244e)" d="M 159.665441 49.772364 
L 161.038631 171.982423 
L 162.411821 202.201859 
L 163.785011 221.685157 
L 165.158201 243.324991 
L 166.531391 253.074422 
L 167.904581 241.428615 
L 169.27777 250.717932 
L 170.65096 246.209174 
L 172.02415 250.175664 
L 173.39734 261.919504 
L 174.77053 279.904238 
L 177.51691 302.103472 
L 178.8901 291.927979 
L 180.26329 306.562579 
L 181.63648 310.656475 
L 183.00967 307.353498 
L 184.38286 301.088345 
L 185.75605 295.465965 
L 187.12924 296.521847 
L 188.50243 301.219218 
L 189.87562 303.382802 
L 191.24881 293.789757 
L 192.621999 298.949189 
L 193.995189 301.73304 
L 195.368379 297.409931 
L 196.741569 324.212365 
L 198.114759 329.870127 
L 199.487949 333.190711 
L 200.861139 335.744974 
L 202.234329 335.330877 
L 203.607519 335.265111 
L 204.980709 335.682203 
L 207.727089 336.114054 
L 209.100279 336.931972 
L 210.473469 336.975523 
L 211.846659 336.622131 
L 213.219849 337.293091 
L 214.593039 337.761561 
L 215.966228 338.533201 
L 218.712608 339.17055 
L 220.085798 339.089018 
L 221.458988 339.56702 
L 222.832178 339.537513 
L 224.205368 340.126807 
L 225.578558 339.950714 
L 228.324938 340.160775 
L 231.071318 340.17006 
L 233.817698 340.777558 
L 235.190888 340.56331 
L 236.564078 340.820822 
L 239.310457 340.415183 
L 240.683647 340.311607 
L 243.430027 340.533879 
L 244.803217 340.285045 
L 246.176407 340.99924 
L 247.549597 341.037269 
L 248.922787 341.605896 
L 250.295977 341.385767 
L 251.669167 341.986747 
L 254.415547 341.715225 
L 255.788737 342.270454 
L 257.161927 342.170807 
L 258.535117 342.390177 
L 259.908307 342.445205 
L 261.281496 342.713153 
L 262.654686 342.55795 
L 264.027876 342.864843 
L 265.401066 342.830208 
L 268.147446 342.422294 
L 269.520636 342.930111 
L 273.640206 343.974589 
L 275.013396 344.372082 
L 276.386586 344.587745 
L 277.759776 345.044429 
L 279.132966 345.075909 
L 280.506156 345.609374 
L 281.879346 345.28211 
L 283.252536 345.682971 
L 284.625725 345.914317 
L 285.998915 345.815541 
L 287.372105 346.216253 
L 288.745295 346.337745 
L 290.118485 346.885809 
L 291.491675 346.821389 
L 292.864865 347.012114 
L 294.238055 347.018007 
L 295.611245 346.888331 
L 298.357625 347.567722 
L 299.730815 347.067882 
L 301.104005 347.046033 
L 302.477195 346.747731 
L 303.850385 347.216176 
L 305.223575 347.031839 
L 306.596765 346.471892 
L 307.969954 346.592558 
L 309.343144 346.20954 
L 310.716334 346.452306 
L 312.089524 345.83636 
L 313.462714 346.148107 
L 314.835904 347.280106 
L 316.209094 347.780622 
L 317.582284 347.82476 
L 318.955474 348.722591 
L 320.328664 348.604849 
L 323.075044 349.853882 
L 324.448234 350.062267 
L 325.821424 350.696079 
L 327.194614 351.059837 
L 331.314183 351.361885 
L 332.687373 351.962001 
L 334.060563 351.994661 
L 335.433753 352.206611 
L 336.806943 352.705844 
L 338.180133 352.970108 
L 339.553323 353.460328 
L 340.926513 353.641741 
L 342.299703 353.984809 
L 343.672893 354.01115 
L 345.046083 353.888504 
L 346.419273 354.691714 
L 347.792463 354.712594 
L 349.165653 354.945631 
L 350.538843 355.381477 
L 351.912033 355.329053 
L 353.285223 356.045626 
L 354.658412 356.098986 
L 361.524362 357.752488 
L 362.897552 358.359364 
L 364.270742 358.654419 
L 365.643932 358.515063 
L 367.017122 358.944225 
L 369.763502 359.458742 
L 371.136692 360.041785 
L 373.883072 360.521286 
L 375.256262 360.8063 
L 376.629452 362.62764 
L 378.002641 368.869693 
L 382.122211 393.225389 
L 383.495401 403.584356 
L 384.868591 419.065497 
L 386.241781 431.688409 
L 387.614971 434.535922 
L 388.988161 436.154136 
L 390.361351 437.161208 
L 391.734541 437.569427 
L 393.107731 438.550232 
L 394.480921 439.04936 
L 395.854111 439.259553 
L 397.227301 440.028536 
L 398.600491 440.42843 
L 399.973681 440.429384 
L 401.34687 441.086111 
L 402.72006 441.4609 
L 404.09325 441.397601 
L 405.46644 441.718749 
L 408.21282 442.128045 
L 409.58601 442.59091 
L 412.33239 442.566785 
L 413.70558 442.930899 
L 415.07877 443.000958 
L 420.57153 443.819584 
L 421.94472 443.88918 
L 424.691099 444.271299 
L 426.064289 444.275196 
L 431.557049 444.721159 
L 432.930239 445.191788 
L 434.303429 444.732788 
L 435.676619 445.204359 
L 437.049809 445.122709 
L 438.422999 445.273474 
L 439.796189 445.283334 
L 441.169379 445.459941 
L 442.542569 445.354123 
L 443.915759 445.798125 
L 445.288949 445.681253 
L 450.781708 446.109111 
L 453.528088 446.653578 
L 454.901278 446.664194 
L 456.274468 446.838624 
L 460.394038 446.945325 
L 461.767228 447.086227 
L 465.886798 447.137676 
L 467.259988 447.592837 
L 471.379557 447.490167 
L 472.752747 447.727561 
L 474.125937 447.71348 
L 476.872317 448.185687 
L 479.618697 448.309718 
L 480.991887 448.702953 
L 482.365077 448.617879 
L 483.738267 449.165714 
L 485.111457 448.979973 
L 486.484647 449.027294 
L 489.231027 449.332552 
L 490.604217 449.395126 
L 491.977407 449.274036 
L 493.350596 449.400145 
L 494.723786 449.31959 
L 498.843356 449.56743 
L 502.962926 449.580365 
L 504.336116 449.730425 
L 505.709306 449.689308 
L 511.202066 450.009128 
L 513.948446 449.832004 
L 515.321636 450.058967 
L 524.933965 450.049438 
L 526.307155 450.22298 
L 527.680345 450.221025 
L 529.053535 450.057546 
L 530.426725 450.261877 
L 531.799915 449.992704 
L 533.173105 450.200363 
L 534.546295 450.084658 
L 540.039054 450.223451 
L 541.412244 450.225781 
L 542.785434 450.46126 
L 544.158624 450.313638 
L 551.024574 450.322261 
L 552.397764 450.200844 
L 553.770954 450.614969 
L 555.144144 450.42352 
L 559.263714 450.32755 
L 560.636904 450.642548 
L 562.010094 450.465556 
L 563.383283 450.514618 
L 564.756473 450.423237 
L 566.129663 450.636469 
L 567.502853 450.467557 
L 571.622423 450.580022 
L 572.995613 450.421317 
L 574.368803 450.462803 
L 575.741993 450.643803 
L 579.861563 450.596261 
L 581.234753 450.440142 
L 582.607943 450.631001 
L 583.981133 450.42442 
L 585.354322 450.570527 
L 592.220272 450.563134 
L 593.593462 450.792808 
L 594.966652 450.548405 
L 596.339842 450.761464 
L 597.713032 450.548142 
L 599.086222 450.672339 
L 600.459412 450.58173 
L 612.818121 450.716109 
L 614.191311 450.616873 
L 615.564501 450.67997 
L 616.937691 450.542095 
L 618.310881 450.54926 
L 619.684071 450.715134 
L 621.057261 450.568424 
L 622.430451 450.727494 
L 623.803641 450.574473 
L 625.176831 450.707926 
L 632.04278 450.788477 
L 633.41597 450.68497 
L 634.78916 450.734696 
L 638.90873 450.595534 
L 640.28192 450.660328 
L 641.65511 450.549552 
L 643.0283 450.762168 
L 644.40149 450.76643 
L 645.77468 450.564112 
L 647.14787 450.753428 
L 649.89425 450.777604 
L 651.26744 450.551363 
L 655.387009 450.68317 
L 656.760199 450.545235 
L 658.133389 450.693291 
L 659.506579 450.677456 
L 660.879769 450.465045 
L 662.252959 450.438927 
L 663.626149 450.597593 
L 664.999339 450.635732 
L 669.118909 450.472777 
L 673.238479 450.624354 
L 674.611669 450.470287 
L 678.731238 450.469142 
L 682.850808 450.50788 
L 684.223998 450.366399 
L 685.597188 450.455972 
L 692.463138 450.285735 
L 693.836328 450.146739 
L 695.209518 450.240919 
L 702.075467 450.04658 
L 703.448657 450.252951 
L 704.821847 450.093968 
L 706.195037 450.168697 
L 707.568227 450.046222 
L 708.941417 450.153402 
L 728.166076 449.725416 
L 729.539266 449.841556 
L 730.912456 449.6427 
L 735.032026 449.685553 
L 736.405216 449.596909 
L 737.778406 449.668547 
L 739.151596 449.491365 
L 740.524786 449.585513 
L 741.897976 449.423245 
L 747.390735 449.313851 
L 748.763925 449.092979 
L 750.137115 449.142542 
L 754.256685 448.403943 
L 755.629875 448.35221 
L 758.376255 447.580478 
L 759.749445 447.803099 
L 762.495825 447.384928 
L 763.869015 447.132902 
L 765.242205 447.3226 
L 767.988585 446.826723 
L 769.361775 446.742332 
L 770.734964 446.493358 
L 772.108154 446.683572 
L 773.481344 446.656436 
L 774.854534 446.420494 
L 776.227724 446.543701 
L 777.600914 446.286236 
L 778.974104 446.390068 
L 781.720484 446.274155 
L 783.093674 446.532043 
L 784.466864 446.200052 
L 787.213244 446.081487 
L 788.586434 445.884641 
L 789.959624 446.141914 
L 791.332814 445.703922 
L 792.706004 446.121772 
L 794.079193 445.932159 
L 795.452383 446.099621 
L 796.825573 445.937693 
L 799.571953 445.896814 
L 800.945143 445.646108 
L 802.318333 445.800372 
L 803.691523 445.759331 
L 805.064713 445.939944 
L 806.437903 445.381802 
L 807.811093 445.932045 
L 810.557473 445.391855 
L 813.303853 445.313413 
L 814.677043 445.01364 
L 816.050233 445.178377 
L 817.423422 444.912172 
L 820.169802 445.102588 
L 821.542992 444.743697 
L 822.916182 444.955422 
L 824.289372 444.833939 
L 825.662562 444.929695 
L 827.035752 444.858358 
L 829.782132 444.973038 
L 832.528512 444.852501 
L 835.274892 444.99005 
L 836.648082 444.613144 
L 838.021272 445.19025 
L 840.767651 444.853102 
L 842.140841 444.96949 
L 843.514031 444.669545 
L 846.260411 444.866689 
L 849.006791 444.954464 
L 850.379981 444.712615 
L 851.753171 444.691385 
L 853.126361 444.44843 
L 854.499551 444.403892 
L 855.872741 444.742082 
L 857.245931 444.391664 
L 858.619121 444.68534 
L 859.992311 444.471238 
L 861.365501 444.611698 
L 864.11188 444.48846 
L 865.48507 444.667947 
L 869.60464 444.341686 
L 870.97783 444.398986 
L 872.35102 444.060766 
L 873.72421 444.413901 
L 875.0974 444.117711 
L 877.84378 444.193403 
L 879.21697 443.920557 
L 884.70973 443.714534 
L 886.082919 443.627347 
L 888.829299 443.925003 
L 890.202489 443.689779 
L 891.575679 443.724762 
L 894.322059 443.459978 
L 895.695249 443.574348 
L 897.068439 443.471678 
L 898.441629 443.240242 
L 899.814819 443.354833 
L 903.934389 443.036959 
L 905.307579 443.34015 
L 906.680769 443.138235 
L 909.427148 443.096705 
L 910.800338 442.918021 
L 912.173528 442.857995 
L 913.546718 442.53599 
L 917.666288 442.431209 
L 919.039478 442.630357 
L 920.412668 442.200495 
L 921.785858 442.315611 
L 923.159048 442.142314 
L 924.532238 442.109724 
L 925.905428 442.314702 
L 927.278618 441.879739 
L 928.651808 441.814315 
L 930.024998 441.453154 
L 932.771377 441.734611 
L 934.144567 441.630286 
L 935.517757 441.886303 
L 936.890947 441.988239 
L 938.264137 441.873838 
L 939.637327 442.127378 
L 941.010517 441.776774 
L 942.383707 441.930655 
L 943.756897 441.847377 
L 945.130087 441.963362 
L 946.503277 441.771879 
L 949.249657 441.955143 
L 950.622847 441.669988 
L 951.996037 442.062519 
L 953.369227 441.933208 
L 958.861986 442.265633 
L 960.235176 442.079268 
L 961.608366 442.179187 
L 962.981556 442.078419 
L 964.354746 442.162274 
L 967.101126 442.04184 
L 968.474316 442.187747 
L 971.220696 442.000191 
L 972.593886 442.153028 
L 973.967076 441.970891 
L 975.340266 442.184141 
L 978.086646 442.265802 
L 979.459835 442.126172 
L 980.833025 442.213321 
L 987.698975 442.080079 
L 990.445355 442.146024 
L 991.818545 442.225304 
L 994.564925 442.075105 
L 997.311305 442.136061 
L 998.684495 442.281883 
L 1001.430875 442.193172 
L 1002.804064 442.099775 
L 1006.923634 442.242815 
L 1008.296824 441.906763 
L 1009.670014 441.728842 
L 1012.416394 441.100934 
L 1013.789584 440.854088 
L 1015.162774 440.941054 
L 1016.535964 440.52208 
L 1017.909154 440.724267 
L 1019.282344 440.353168 
L 1020.655534 440.247412 
L 1023.401914 439.763256 
L 1026.148293 439.563429 
L 1027.521483 439.209035 
L 1028.894673 439.420405 
L 1030.267863 438.99749 
L 1031.641053 438.744744 
L 1033.014243 438.671195 
L 1034.387433 438.754337 
L 1035.760623 438.724313 
L 1037.133813 438.296732 
L 1038.507003 438.371374 
L 1039.880193 438.184571 
L 1041.253383 438.350397 
L 1042.626573 437.826164 
L 1043.999763 437.591682 
L 1045.372953 437.243148 
L 1046.746143 437.329323 
L 1048.119332 436.869216 
L 1049.492522 436.874228 
L 1050.865712 436.482611 
L 1054.985282 435.670488 
L 1056.358472 435.72624 
L 1057.731662 435.619897 
L 1059.104852 435.150196 
L 1061.851232 434.857357 
L 1063.224422 434.567973 
L 1064.597612 434.160897 
L 1065.970802 434.305776 
L 1068.717182 433.372675 
L 1071.463561 433.214506 
L 1072.836751 433.101002 
L 1074.209941 433.326303 
L 1076.956321 432.681189 
L 1078.329511 432.859559 
L 1079.702701 432.379687 
L 1082.449081 432.745725 
L 1087.941841 432.780544 
L 1089.315031 432.536987 
L 1090.688221 432.912098 
L 1092.061411 432.512516 
L 1093.434601 432.549462 
L 1094.80779 432.285776 
L 1096.18098 432.294538 
L 1097.55417 431.951404 
L 1098.92736 431.794184 
L 1100.30055 432.052281 
L 1101.67374 431.363288 
L 1104.42012 431.568371 
L 1105.79331 431.838882 
L 1107.1665 431.438696 
L 1108.53969 431.51692 
L 1109.91288 431.793426 
L 1111.28607 431.645296 
L 1112.65926 431.341546 
L 1114.03245 432.113871 
L 1118.152019 431.915778 
L 1119.525209 431.52555 
L 1122.271589 431.69867 
L 1123.644779 431.625792 
L 1125.017969 431.720385 
L 1126.391159 430.944521 
L 1127.764349 431.514221 
L 1130.510729 431.350237 
L 1133.257109 431.781877 
L 1134.630299 431.375899 
L 1136.003489 431.965187 
L 1138.749869 431.471141 
L 1140.123059 432.008587 
L 1141.496248 431.873328 
L 1142.869438 431.588083 
L 1144.242628 431.479746 
L 1145.615818 430.952942 
L 1146.989008 431.713762 
L 1148.362198 431.479151 
L 1149.735388 431.921264 
L 1151.108578 431.839653 
L 1152.481768 432.11255 
L 1153.854958 432.119502 
L 1156.601338 431.841462 
L 1157.974528 431.417901 
L 1159.347718 431.650614 
L 1160.720908 432.068769 
L 1162.094098 431.648896 
L 1163.467288 432.277112 
L 1166.213667 432.098957 
L 1167.586857 431.765834 
L 1171.706427 431.687101 
L 1173.079617 432.052203 
L 1174.452807 431.879857 
L 1175.825997 432.325277 
L 1177.199187 432.09266 
L 1179.945567 432.472529 
L 1181.318757 431.960506 
L 1182.691947 432.224976 
L 1184.065137 431.822188 
L 1185.438327 431.768201 
L 1188.184706 431.118823 
L 1189.557896 431.317765 
L 1190.931086 431.092037 
L 1192.304276 431.314892 
L 1193.677466 431.817386 
L 1195.050656 431.013508 
L 1196.423846 431.189478 
L 1197.797036 430.933674 
L 1199.170226 430.562612 
L 1200.543416 430.333503 
L 1201.916606 430.317938 
L 1203.289796 430.626285 
L 1204.662986 431.122123 
L 1207.409366 431.543417 
L 1208.782556 431.127027 
L 1210.155745 430.916372 
L 1212.902125 431.047211 
L 1214.275315 430.907478 
L 1215.648505 430.939529 
L 1217.021695 430.423664 
L 1218.394885 430.585405 
L 1219.768075 429.629457 
L 1221.141265 429.870766 
L 1222.514455 429.798726 
L 1223.887645 429.845639 
L 1225.260835 428.894114 
L 1226.634025 430.508589 
L 1228.007215 428.303553 
L 1229.380405 428.828937 
L 1230.753595 428.427432 
L 1233.499974 428.44836 
L 1234.873164 428.1155 
L 1236.246354 429.283202 
L 1237.619544 429.487577 
L 1238.992734 429.281731 
L 1240.365924 429.260741 
L 1241.739114 430.000007 
L 1243.112304 431.190099 
L 1244.485494 431.653729 
L 1245.858684 431.315775 
L 1248.605064 432.15627 
L 1249.978254 432.045643 
L 1251.351444 432.344785 
L 1252.724634 432.358309 
L 1254.097824 432.259655 
L 1255.471014 432.39322 
L 1256.844203 431.761204 
L 1258.217393 432.177502 
L 1259.590583 433.077278 
L 1260.963773 433.264071 
L 1262.336963 432.994303 
L 1263.710153 433.157113 
L 1265.083343 433.741728 
L 1266.456533 434.099007 
L 1269.202913 433.269197 
L 1270.576103 433.211763 
L 1271.949293 433.987159 
L 1273.322483 434.336821 
L 1274.695673 433.79494 
L 1276.068863 434.670549 
L 1278.815243 434.792302 
L 1281.561622 435.35204 
L 1282.934812 435.288522 
L 1284.308002 435.605935 
L 1285.681192 435.807988 
L 1287.054382 435.581592 
L 1288.427572 435.692777 
L 1289.800762 435.147328 
L 1291.173952 435.977545 
L 1292.547142 435.564319 
L 1293.920332 436.346352 
L 1295.293522 435.699084 
L 1296.666712 436.221439 
L 1299.413092 436.616118 
L 1300.786282 436.59854 
L 1302.159472 435.983953 
L 1303.532661 436.61514 
L 1304.905851 436.440329 
L 1306.279041 436.435859 
L 1307.652231 437.122691 
L 1309.025421 437.177193 
L 1310.398611 436.891132 
L 1311.771801 436.892082 
L 1313.144991 435.467681 
L 1314.518181 437.189681 
L 1315.891371 436.948867 
L 1317.264561 437.377652 
L 1318.637751 436.577733 
L 1320.010941 437.036582 
L 1321.384131 436.354273 
L 1322.757321 437.749365 
L 1324.130511 437.07025 
L 1325.503701 437.150726 
L 1326.87689 437.459445 
L 1329.62327 437.078688 
L 1330.99646 437.10787 
L 1332.36965 436.947113 
L 1333.74284 435.669151 
L 1335.11603 436.411722 
L 1336.48922 437.438483 
L 1337.86241 437.296512 
L 1339.2356 436.651179 
L 1340.60879 437.674716 
L 1343.35517 437.572803 
L 1344.72836 436.760255 
L 1346.10155 436.466732 
L 1347.47474 436.710647 
L 1348.84793 437.95517 
L 1350.221119 437.534664 
L 1351.594309 436.566673 
L 1352.967499 437.187774 
L 1355.713879 436.211593 
L 1357.087069 429.956699 
L 1358.460259 305.84467 
L 1358.460259 305.84467 
" style="fill:none;stroke:#d62728;stroke-linecap:square;stroke-opacity:0.84;stroke-width:1.5;"/>
   </g>
   <g id="line2d_18">
    <path clip-path="url(#pbb0096244e)" d="M 161.037085 216.000675 
L 162.408704 358.767042 
L 163.780322 379.677552 
L 165.151941 383.431913 
L 166.52356 316.346776 
L 167.895179 387.251218 
L 169.266797 414.631489 
L 170.638416 422.307124 
L 172.010035 416.625869 
L 173.381654 417.561274 
L 174.753272 420.566559 
L 176.124891 422.422536 
L 177.49651 432.02381 
L 180.239747 439.517648 
L 181.611366 446.765395 
L 182.982985 459.394462 
L 184.354604 470.962296 
L 185.726222 484.002745 
L 187.097841 492.812633 
L 188.46946 500.51356 
L 189.841079 501.759047 
L 191.212697 503.214573 
L 192.584316 510.696488 
L 193.955935 509.618099 
L 195.327554 514.842017 
L 196.699172 515.661455 
L 198.070791 517.374485 
L 199.44241 516.301213 
L 200.814029 517.940894 
L 202.185648 521.348129 
L 203.557266 521.192913 
L 204.928885 522.223769 
L 206.300504 525.137584 
L 207.672123 525.096323 
L 209.043741 526.933133 
L 210.41536 527.557732 
L 211.786979 528.941154 
L 213.158598 528.38525 
L 214.530216 528.021782 
L 215.901835 531.619586 
L 217.273454 529.574474 
L 218.645073 533.411133 
L 220.016691 535.092314 
L 221.38831 535.166594 
L 222.759929 535.499813 
L 224.131548 531.799319 
L 225.503166 530.051592 
L 226.874785 532.327149 
L 228.246404 531.415936 
L 229.618023 536.709149 
L 232.36126 522.742378 
L 233.732879 521.248683 
L 235.104498 523.081196 
L 236.476116 528.871372 
L 237.847735 541.881829 
L 239.219354 542.050829 
L 240.590973 541.891573 
L 241.962591 542.505695 
L 243.33421 544.486921 
L 244.705829 544.049636 
L 246.077448 547.81041 
L 247.449066 546.37984 
L 248.820685 547.01153 
L 250.192304 545.730694 
L 251.563923 548.601511 
L 252.935541 549.706738 
L 254.30716 545.233678 
L 255.678779 540.088993 
L 257.050398 544.534195 
L 258.422017 549.667578 
L 259.793635 533.914313 
L 261.165254 522.930848 
L 262.536873 523.857375 
L 265.28011 549.997481 
L 266.651729 558.928682 
L 268.023348 560.800429 
L 269.394967 564.327514 
L 270.766585 566.475575 
L 272.138204 566.148391 
L 273.509823 568.871645 
L 274.881442 568.053868 
L 276.25306 568.095629 
L 277.624679 569.573042 
L 278.996298 570.870732 
L 280.367917 570.447081 
L 281.739535 569.366969 
L 283.111154 572.28805 
L 284.482773 572.583432 
L 288.597629 572.539181 
L 289.969248 573.768033 
L 291.340867 573.683012 
L 292.712485 574.731644 
L 294.084104 572.173202 
L 295.455723 575.020481 
L 296.827342 574.846711 
L 298.19896 573.806193 
L 299.570579 573.634193 
L 300.942198 574.732233 
L 302.313817 575.168614 
L 303.685435 575.363207 
L 305.057054 575.830427 
L 306.428673 574.731248 
L 307.800292 574.549188 
L 309.17191 574.595001 
L 310.543529 572.793721 
L 311.915148 568.451774 
L 314.658386 553.779548 
L 316.030004 547.705322 
L 317.401623 546.424614 
L 318.773242 546.387766 
L 320.144861 540.616599 
L 321.516479 539.957974 
L 322.888098 540.58061 
L 324.259717 542.183543 
L 325.631336 543.151141 
L 327.002954 546.668245 
L 328.374573 549.841456 
L 329.746192 554.750291 
L 331.117811 561.329264 
L 332.489429 565.153836 
L 333.861048 568.243135 
L 335.232667 569.370624 
L 336.604286 567.790232 
L 337.975904 568.650396 
L 342.090761 570.430187 
L 344.833998 571.333346 
L 346.205617 572.375603 
L 348.948854 571.817105 
L 350.320473 574.156669 
L 351.692092 574.215994 
L 353.063711 575.286929 
L 354.435329 574.711945 
L 355.806948 574.833791 
L 357.178567 576.334072 
L 358.550186 576.24988 
L 359.921804 576.630067 
L 362.665042 579.099646 
L 364.036661 579.153246 
L 365.40828 581.016459 
L 366.779898 581.411098 
L 368.151517 582.321899 
L 369.523136 582.657588 
L 370.894755 583.302458 
L 372.266373 583.418809 
L 373.637992 583.366619 
L 375.009611 584.600776 
L 376.38123 583.758448 
L 377.752848 585.831989 
L 379.124467 591.182961 
L 380.496086 595.83228 
L 383.239323 600.390924 
L 384.610942 601.735686 
L 385.982561 603.849594 
L 388.725798 605.294781 
L 390.097417 604.869373 
L 392.840655 605.030161 
L 394.212273 604.921032 
L 395.583892 605.065316 
L 396.955511 605.480402 
L 399.698748 604.847768 
L 401.070367 605.283111 
L 402.441986 605.376536 
L 405.185223 605.940645 
L 406.556842 605.688876 
L 407.928461 606.599851 
L 409.30008 606.383413 
L 410.671698 606.367785 
L 412.043317 605.804264 
L 413.414936 605.989772 
L 414.786555 606.42401 
L 416.158173 606.716893 
L 417.529792 606.289911 
L 418.901411 606.458504 
L 420.27303 606.753759 
L 421.644649 606.84684 
L 423.016267 606.69626 
L 424.387886 607.163261 
L 427.131124 607.773053 
L 429.874361 608.187111 
L 431.24598 607.980031 
L 436.732455 608.331778 
L 438.104074 608.105334 
L 439.475692 608.385673 
L 440.847311 608.789102 
L 442.21893 608.833879 
L 443.590549 609.127794 
L 444.962167 608.895849 
L 446.333786 609.147947 
L 450.448642 609.641856 
L 451.820261 609.848886 
L 453.19188 609.583799 
L 455.935117 609.98871 
L 457.306736 609.843739 
L 458.678355 609.827685 
L 461.421592 610.074568 
L 462.793211 610.020592 
L 464.16483 610.272766 
L 466.908067 610.444903 
L 468.279686 610.741677 
L 469.651305 610.773062 
L 471.022924 610.964776 
L 472.394542 610.889568 
L 473.766161 611.135268 
L 475.13778 610.968495 
L 480.624255 611.340402 
L 483.367493 611.152653 
L 487.482349 611.562174 
L 490.225586 611.459227 
L 491.597205 611.520123 
L 492.968824 611.248667 
L 494.340443 611.527908 
L 495.712061 611.443053 
L 499.826918 611.510689 
L 501.198536 611.844585 
L 503.941774 611.854446 
L 505.313393 612.097859 
L 508.05663 611.884369 
L 509.428249 612.03079 
L 510.799868 611.832417 
L 512.171486 612.112535 
L 513.543105 611.915333 
L 514.914724 611.534118 
L 516.286343 612.034127 
L 517.657961 611.879057 
L 519.02958 611.896355 
L 521.772818 612.233083 
L 523.144436 612.066856 
L 525.887674 612.188578 
L 528.630912 612.297373 
L 530.00253 612.542337 
L 531.374149 612.166795 
L 532.745768 612.439828 
L 534.117387 612.418844 
L 535.489005 612.286096 
L 536.860624 612.413392 
L 538.232243 612.202995 
L 539.603862 612.337069 
L 540.97548 612.261532 
L 543.718718 612.464128 
L 545.090337 612.48287 
L 546.461955 612.375509 
L 549.205193 612.540207 
L 550.576812 612.335382 
L 553.320049 612.550104 
L 556.063287 612.6959 
L 562.92138 612.4908 
L 564.292999 612.77419 
L 565.664618 612.530938 
L 567.036237 612.571168 
L 568.407855 612.727799 
L 576.637568 612.854507 
L 578.009187 613.053551 
L 579.380805 612.792316 
L 582.124043 612.774804 
L 583.495662 612.94859 
L 584.867281 612.596863 
L 590.353756 612.813934 
L 591.725374 612.653898 
L 593.096993 613.013696 
L 595.840231 612.837323 
L 597.211849 612.587969 
L 599.955087 612.675055 
L 601.326706 612.86789 
L 602.698324 612.516642 
L 604.069943 612.914835 
L 605.441562 612.836061 
L 606.813181 613.219636 
L 609.556418 612.555379 
L 612.299656 612.793263 
L 613.671274 613.075924 
L 615.042893 612.844747 
L 617.786131 612.769052 
L 619.157749 612.487601 
L 620.529368 612.402841 
L 623.272606 612.829447 
L 626.015843 612.580886 
L 627.387462 612.702307 
L 628.759081 612.697344 
L 630.130699 612.352308 
L 631.502318 612.480676 
L 632.873937 612.47926 
L 634.245556 612.357231 
L 635.617175 612.708353 
L 639.732031 612.371189 
L 641.10365 612.459955 
L 642.475268 612.258876 
L 643.846887 612.247217 
L 645.218506 612.610171 
L 646.590125 612.148985 
L 647.961743 612.471699 
L 649.333362 612.327979 
L 650.704981 611.961174 
L 654.819837 612.185172 
L 657.563075 612.280727 
L 658.934693 612.016437 
L 660.306312 612.231579 
L 663.04955 612.19662 
L 664.421168 612.366374 
L 667.164406 611.991075 
L 668.536025 612.256454 
L 669.907643 612.122676 
L 671.279262 612.340005 
L 675.394118 612.109674 
L 676.765737 612.413587 
L 678.137356 612.380759 
L 679.508975 612.121435 
L 680.880593 612.329754 
L 682.252212 612.220597 
L 683.623831 612.508428 
L 684.99545 612.115652 
L 686.367068 612.653154 
L 689.110306 612.181126 
L 691.853544 612.53677 
L 693.225162 612.643651 
L 694.596781 612.431088 
L 698.711637 612.291839 
L 700.083256 612.380825 
L 702.826494 612.293113 
L 704.198112 612.537475 
L 705.569731 612.282187 
L 706.94135 612.426508 
L 708.312969 612.150523 
L 709.684587 612.257758 
L 712.427825 612.13028 
L 713.799444 612.253899 
L 715.171062 612.040694 
L 719.285919 611.944456 
L 720.657537 612.049793 
L 722.029156 611.830706 
L 723.400775 611.888098 
L 726.144012 611.635903 
L 730.258869 611.727288 
L 733.002106 611.537601 
L 734.373725 611.27765 
L 737.116962 611.493852 
L 738.488581 611.277005 
L 739.8602 611.270931 
L 741.231819 610.906955 
L 742.603437 611.016146 
L 743.975056 610.445768 
L 745.346675 610.310102 
L 746.718294 610.442172 
L 749.461531 610.154217 
L 750.83315 610.016609 
L 753.576388 609.184047 
L 754.948006 608.925558 
L 759.062863 606.740578 
L 760.434481 605.755511 
L 761.8061 605.799432 
L 763.177719 605.13997 
L 765.920956 604.670738 
L 767.292575 604.0554 
L 768.664194 603.840026 
L 770.035813 602.694205 
L 771.407431 602.198371 
L 772.77905 603.222133 
L 774.150669 603.4731 
L 775.522288 601.406351 
L 776.893906 602.007923 
L 778.265525 603.572402 
L 779.637144 602.224268 
L 781.008763 601.439776 
L 782.380381 603.197639 
L 783.752 601.503211 
L 785.123619 601.292404 
L 786.495238 603.347558 
L 787.866856 601.388165 
L 789.238475 601.374126 
L 790.610094 602.841307 
L 791.981713 600.605862 
L 793.353331 602.547627 
L 794.72495 601.651237 
L 796.096569 602.60828 
L 797.468188 601.713202 
L 798.839807 603.044406 
L 800.211425 602.050845 
L 801.583044 603.169127 
L 802.954663 602.768841 
L 804.326282 602.942121 
L 805.6979 603.698905 
L 807.069519 602.398911 
L 808.441138 603.680822 
L 809.812757 603.301589 
L 811.184375 603.227346 
L 812.555994 602.428399 
L 813.927613 602.845581 
L 816.67085 602.603283 
L 818.042469 602.859256 
L 819.414088 603.685219 
L 820.785707 603.164739 
L 822.157325 602.963785 
L 823.528944 603.246813 
L 824.900563 602.839929 
L 826.272182 604.149918 
L 827.6438 603.291237 
L 829.015419 603.846546 
L 830.387038 603.092848 
L 833.130275 602.545864 
L 834.501894 603.050834 
L 835.873513 603.900873 
L 837.245132 602.977251 
L 838.61675 603.900422 
L 839.988369 603.750998 
L 841.359988 603.375887 
L 842.731607 604.184895 
L 844.103225 603.725537 
L 845.474844 603.563409 
L 846.846463 604.139246 
L 850.961319 604.521529 
L 852.332938 604.189574 
L 853.704557 603.712735 
L 855.076176 603.620065 
L 856.447794 604.583739 
L 857.819413 603.806856 
L 859.191032 603.97821 
L 860.562651 603.18024 
L 861.934269 603.175673 
L 863.305888 602.679204 
L 864.677507 603.443837 
L 867.420744 602.942008 
L 870.163982 603.337397 
L 871.535601 602.867493 
L 874.278838 602.936859 
L 875.650457 602.384238 
L 877.022076 603.000098 
L 878.393694 602.241766 
L 879.765313 602.515623 
L 881.136932 601.697876 
L 883.880169 602.081991 
L 885.251788 602.61013 
L 886.623407 602.158779 
L 887.995026 602.438925 
L 889.366644 602.489207 
L 890.738263 602.810228 
L 892.109882 602.179707 
L 893.481501 602.181679 
L 894.853119 601.54289 
L 896.224738 602.006065 
L 897.596357 600.63944 
L 898.967976 601.235285 
L 900.339594 600.615557 
L 901.711213 601.205084 
L 903.082832 601.460072 
L 904.454451 601.072517 
L 905.826069 601.37884 
L 907.197688 601.181588 
L 908.569307 601.30355 
L 909.940926 600.57945 
L 911.312545 600.811755 
L 912.684163 601.322652 
L 914.055782 600.430706 
L 915.427401 600.205823 
L 916.79902 600.50044 
L 918.170638 600.267796 
L 919.542257 600.692805 
L 920.913876 599.458686 
L 922.285495 599.939165 
L 925.028732 600.181879 
L 927.77197 599.999844 
L 929.143588 600.285994 
L 930.515207 600.122047 
L 934.630063 600.708601 
L 936.001682 600.5869 
L 938.74492 600.97678 
L 940.116538 601.441691 
L 941.488157 601.226458 
L 942.859776 601.725668 
L 944.231395 601.782198 
L 946.974632 601.684287 
L 948.346251 602.106584 
L 951.089488 601.9421 
L 952.461107 602.658268 
L 953.832726 602.244131 
L 955.204345 602.75783 
L 956.575963 602.411534 
L 957.947582 602.703432 
L 959.319201 603.313033 
L 960.69082 603.111731 
L 962.062439 603.490122 
L 963.434057 603.08486 
L 964.805676 603.373754 
L 966.177295 603.42694 
L 967.548914 603.693007 
L 968.920532 603.729974 
L 970.292151 604.139493 
L 971.66377 603.807839 
L 973.035389 603.9315 
L 974.407007 603.142303 
L 975.778626 603.761821 
L 977.150245 603.969397 
L 978.521864 604.052478 
L 979.893482 603.846966 
L 981.265101 604.281233 
L 982.63672 604.203498 
L 985.379957 604.336361 
L 988.123195 604.236424 
L 989.494814 604.371284 
L 990.866432 604.332348 
L 992.238051 604.759421 
L 993.60967 604.560541 
L 994.981289 604.651708 
L 996.352907 604.477913 
L 997.724526 604.425932 
L 999.096145 604.798414 
L 1000.467764 604.813301 
L 1001.839382 605.277242 
L 1003.211001 604.853103 
L 1004.58262 605.424862 
L 1005.954239 605.252469 
L 1007.325857 605.411035 
L 1008.697476 605.078761 
L 1010.069095 605.013835 
L 1012.812332 604.659832 
L 1014.183951 603.413953 
L 1015.55557 604.191283 
L 1016.927189 602.847887 
L 1018.298808 603.604114 
L 1019.670426 602.88659 
L 1021.042045 602.80314 
L 1022.413664 602.479727 
L 1023.785283 602.334385 
L 1025.156901 601.847991 
L 1029.271758 601.635568 
L 1030.643376 601.410568 
L 1032.014995 601.332055 
L 1033.386614 601.386635 
L 1034.758233 601.220292 
L 1036.129851 601.177757 
L 1037.50147 600.890201 
L 1038.873089 601.158203 
L 1040.244708 600.785081 
L 1041.616326 600.973774 
L 1042.987945 600.877616 
L 1044.359564 600.266722 
L 1045.731183 600.248421 
L 1047.102801 599.894606 
L 1048.47442 599.425119 
L 1049.846039 599.193474 
L 1051.217658 598.672494 
L 1052.589276 598.544062 
L 1053.960895 597.336722 
L 1055.332514 596.598515 
L 1056.704133 596.672546 
L 1058.075751 595.480013 
L 1059.44737 594.631042 
L 1060.818989 595.046048 
L 1062.190608 593.972266 
L 1063.562226 594.355045 
L 1064.933845 592.732503 
L 1066.305464 593.159161 
L 1067.677083 592.032727 
L 1069.048702 591.06393 
L 1070.42032 590.913969 
L 1073.163558 589.987419 
L 1074.535177 590.170889 
L 1075.906795 590.054334 
L 1077.278414 589.237907 
L 1078.650033 589.22832 
L 1080.021652 588.368725 
L 1081.39327 589.753713 
L 1082.764889 588.666001 
L 1084.136508 589.001283 
L 1085.508127 589.645374 
L 1086.879745 589.537279 
L 1088.251364 589.775953 
L 1089.622983 589.678509 
L 1090.994602 589.835292 
L 1093.737839 589.124349 
L 1095.109458 588.980777 
L 1096.481077 589.067477 
L 1097.852695 588.402713 
L 1100.595933 588.30723 
L 1101.967552 587.160026 
L 1103.33917 587.417784 
L 1104.710789 588.392204 
L 1106.082408 588.016875 
L 1107.454027 587.258331 
L 1108.825645 587.502343 
L 1110.197264 587.543775 
L 1111.568883 586.814001 
L 1112.940502 586.341329 
L 1114.31212 587.680203 
L 1115.683739 587.503561 
L 1117.055358 586.519285 
L 1118.426977 587.979115 
L 1119.798595 587.134532 
L 1121.170214 587.422356 
L 1122.541833 586.472513 
L 1123.913452 586.953672 
L 1126.656689 587.072477 
L 1128.028308 588.201451 
L 1129.399927 586.556761 
L 1130.771546 588.790564 
L 1132.143164 587.512769 
L 1133.514783 589.440699 
L 1134.886402 587.958297 
L 1136.258021 590.433418 
L 1137.629639 589.769739 
L 1139.001258 590.548364 
L 1140.372877 591.985712 
L 1141.744496 592.402014 
L 1143.116114 590.179298 
L 1144.487733 590.049243 
L 1145.859352 591.278426 
L 1147.230971 591.446582 
L 1148.602589 592.588021 
L 1149.974208 591.459282 
L 1151.345827 591.324118 
L 1152.717446 592.210622 
L 1155.460683 593.053273 
L 1156.832302 593.615813 
L 1159.575539 592.647653 
L 1160.947158 593.12151 
L 1162.318777 592.266785 
L 1163.690396 593.525608 
L 1166.433633 593.150807 
L 1169.176871 591.852386 
L 1170.548489 593.182147 
L 1171.920108 592.638858 
L 1173.291727 592.32951 
L 1174.663346 592.189894 
L 1176.034964 591.557525 
L 1177.406583 591.67791 
L 1178.778202 592.888918 
L 1180.149821 592.544536 
L 1181.52144 592.594675 
L 1184.264677 592.200611 
L 1185.636296 590.325437 
L 1188.379533 589.506859 
L 1189.751152 588.676299 
L 1191.122771 586.937073 
L 1192.49439 588.468336 
L 1193.866008 589.701696 
L 1196.609246 586.68553 
L 1197.980865 585.500578 
L 1199.352483 585.386936 
L 1200.724102 586.600153 
L 1202.095721 585.328934 
L 1203.46734 586.078681 
L 1204.838958 586.504501 
L 1206.210577 587.767746 
L 1207.582196 587.511451 
L 1208.953815 587.057243 
L 1210.325433 586.906922 
L 1211.697052 583.641998 
L 1213.068671 586.342352 
L 1214.44029 585.611361 
L 1215.811908 584.520804 
L 1217.183527 583.220744 
L 1218.555146 583.997946 
L 1219.926765 580.574525 
L 1221.298383 581.965132 
L 1222.670002 581.928511 
L 1224.041621 582.180081 
L 1225.41324 581.828629 
L 1226.784858 582.479868 
L 1228.156477 579.269676 
L 1229.528096 580.803364 
L 1230.899715 576.688899 
L 1232.271334 579.02425 
L 1233.642952 578.285199 
L 1236.38619 579.915421 
L 1237.757809 583.00598 
L 1239.129427 583.246516 
L 1241.872665 585.962907 
L 1243.244284 588.26513 
L 1244.615902 588.978122 
L 1245.987521 587.033428 
L 1247.35914 587.708957 
L 1248.730759 588.047444 
L 1250.102377 589.098461 
L 1251.473996 589.292971 
L 1252.845615 588.196756 
L 1254.217234 586.862776 
L 1255.588852 585.88359 
L 1256.960471 586.917124 
L 1258.33209 586.106705 
L 1259.703709 588.279949 
L 1261.075327 589.093036 
L 1262.446946 588.30703 
L 1263.818565 588.340883 
L 1265.190184 592.258116 
L 1266.561802 592.754109 
L 1267.933421 592.727757 
L 1270.676659 591.361486 
L 1272.048277 593.094844 
L 1273.419896 593.475505 
L 1274.791515 593.717535 
L 1276.163134 594.344284 
L 1277.534752 595.317269 
L 1278.906371 594.797616 
L 1280.27799 597.212415 
L 1281.649609 595.428693 
L 1283.021227 596.114581 
L 1284.392846 596.52886 
L 1285.764465 596.600021 
L 1287.136084 595.457718 
L 1289.879321 597.069079 
L 1291.25094 596.964621 
L 1292.622559 596.13755 
L 1293.994178 598.300992 
L 1295.365796 598.544471 
L 1296.737415 598.48558 
L 1298.109034 599.474795 
L 1299.480653 598.828968 
L 1300.852271 600.041897 
L 1302.22389 599.19566 
L 1303.595509 597.224097 
L 1304.967128 600.383627 
L 1306.338746 600.060285 
L 1307.710365 600.595321 
L 1309.081984 600.293708 
L 1311.825221 598.551848 
L 1313.19684 601.136325 
L 1314.568459 600.280577 
L 1315.940078 598.251063 
L 1317.311696 600.334852 
L 1318.683315 600.170866 
L 1320.054934 598.646422 
L 1321.426553 600.516275 
L 1322.798171 600.593448 
L 1324.16979 599.068025 
L 1325.541409 598.243126 
L 1326.913028 602.263557 
L 1328.284646 601.491345 
L 1329.656265 601.915216 
L 1331.027884 604.141679 
L 1332.399503 600.293191 
L 1333.771121 601.553628 
L 1335.14274 600.826848 
L 1336.514359 602.933919 
L 1339.257597 600.080267 
L 1340.629215 602.347062 
L 1342.000834 599.576259 
L 1343.372453 599.865965 
L 1346.11569 601.578549 
L 1347.487309 601.05555 
L 1348.858928 599.341855 
L 1350.230547 605.409355 
L 1352.973784 601.91632 
L 1354.345403 597.544245 
L 1355.717022 601.349761 
L 1357.08864 592.807477 
L 1358.460259 458.938496 
L 1358.460259 458.938496 
" style="fill:none;stroke:#1f77b4;stroke-linecap:square;stroke-opacity:0.84;stroke-width:1.5;"/>
   </g>
   <g id="line2d_19">
    <path clip-path="url(#pbb0096244e)" d="M 159.665441 304.678489 
L 168.176266 308.281768 
L 176.68709 316.878075 
L 185.197915 323.853607 
L 193.708739 330.746402 
L 202.219564 333.115232 
L 210.730389 336.975523 
L 219.241213 336.913702 
L 227.752038 340.208837 
L 236.262863 339.589099 
L 244.773687 342.637526 
L 253.284512 342.371835 
L 261.795336 344.974112 
L 270.306161 344.911912 
L 278.816986 348.426202 
L 287.32781 347.934623 
L 295.838635 351.903552 
L 304.34946 351.212635 
L 312.860284 355.716436 
L 321.371109 353.898299 
L 329.881934 357.924853 
L 338.392758 357.815071 
L 346.903583 362.401693 
L 355.414407 361.549783 
L 363.925232 366.087967 
L 372.436057 366.227773 
L 380.946881 370.571521 
L 389.457706 372.661946 
L 397.968531 377.859747 
L 406.479355 379.139985 
L 414.99018 391.261523 
L 423.501005 397.426568 
L 432.011829 399.74753 
L 440.522654 417.77176 
L 449.033478 415.992832 
L 457.544303 423.660081 
L 466.055128 416.035428 
L 474.565952 429.067707 
L 483.076777 423.20365 
L 491.587602 424.021014 
L 500.098426 414.528991 
L 508.609251 419.559599 
L 517.120076 414.750732 
L 525.6309 399.585904 
L 534.141725 418.304702 
L 542.652549 415.970819 
L 551.163374 418.506587 
L 559.674199 412.072534 
L 568.185023 417.442136 
L 576.695848 424.232913 
L 585.206673 420.163597 
L 593.717497 411.775051 
L 602.228322 418.179272 
L 610.739146 416.437706 
L 619.249971 412.151867 
L 627.760796 408.602831 
L 636.27162 405.453689 
L 644.782445 399.064065 
L 653.29327 401.6734 
L 661.804094 397.642199 
L 670.314919 399.331684 
L 678.825744 397.290098 
L 687.336568 387.37506 
L 695.847393 384.748972 
L 704.358217 375.607281 
L 712.869042 362.222764 
L 721.379867 333.432082 
L 729.890691 329.922959 
L 738.401516 361.794455 
L 746.912341 373.693654 
L 755.423165 381.971835 
L 763.93399 389.345356 
L 772.444815 389.80236 
L 780.955639 397.007913 
L 789.466464 397.149079 
L 797.977288 403.219723 
L 806.488113 398.02819 
L 814.998938 397.018771 
L 823.509762 407.377309 
L 832.020587 398.851261 
" style="fill:none;stroke:#9467bd;stroke-linecap:square;stroke-width:1.5;"/>
   </g>
   <g id="line2d_20">
    <path clip-path="url(#pbb0096244e)" d="M 163.106158 327.252289 
L 166.546874 328.807341 
L 169.987591 329.626565 
L 173.428308 329.924668 
L 176.869025 331.228465 
L 180.309741 331.574036 
L 183.750458 331.971689 
L 187.191175 333.339102 
L 190.631892 334.225661 
L 194.072608 335.096536 
L 197.513325 335.571563 
L 200.954042 335.882731 
L 204.394759 334.983949 
L 207.835476 336.336291 
L 211.276192 336.975523 
L 214.716909 337.288749 
L 218.157626 338.018215 
L 221.598343 340.440644 
L 225.039059 339.205283 
L 228.479776 341.582891 
" style="fill:none;stroke:#000000;stroke-linecap:square;stroke-width:1.5;"/>
   </g>
   <g id="patch_3">
    <path d="M 99.7257 641.392 
L 99.7257 21.6 
" style="fill:none;stroke:#000000;stroke-linecap:square;stroke-linejoin:miter;stroke-width:0.8;"/>
   </g>
   <g id="patch_4">
    <path d="M 1418.4 641.392 
L 1418.4 21.6 
" style="fill:none;stroke:#000000;stroke-linecap:square;stroke-linejoin:miter;stroke-width:0.8;"/>
   </g>
   <g id="patch_5">
    <path d="M 99.7257 641.392 
L 1418.4 641.392 
" style="fill:none;stroke:#000000;stroke-linecap:square;stroke-linejoin:miter;stroke-width:0.8;"/>
   </g>
   <g id="patch_6">
    <path d="M 99.7257 21.6 
L 1418.4 21.6 
" style="fill:none;stroke:#000000;stroke-linecap:square;stroke-linejoin:miter;stroke-width:0.8;"/>
   </g>
   <g id="legend_1">
    <g id="patch_7">
     <path d="M 1063.990625 243.09375 
L 1404.4 243.09375 
Q 1408.4 243.09375 1408.4 239.09375 
L 1408.4 35.6 
Q 1408.4 31.6 1404.4 31.6 
L 1063.990625 31.6 
Q 1059.990625 31.6 1059.990625 35.6 
L 1059.990625 239.09375 
Q 1059.990625 243.09375 1063.990625 243.09375 
z
" style="fill:#ffffff;opacity:0.8;stroke:#cccccc;stroke-linejoin:miter;"/>
    </g>
    <g id="line2d_21">
     <path d="M 1067.990625 47.796875 
L 1107.990625 47.796875 
" style="fill:none;stroke:#ff7f0e;stroke-linecap:square;stroke-width:1.5;"/>
    </g>
    <g id="line2d_22"/>
    <g id="text_16">
     <!-- analytic cutoff with NA=0.4 -->
     <defs>
      <path d="M 54.890625 33.015625 
L 54.890625 0 
L 45.90625 0 
L 45.90625 32.71875 
Q 45.90625 40.484375 42.875 44.328125 
Q 39.84375 48.1875 33.796875 48.1875 
Q 26.515625 48.1875 22.3125 43.546875 
Q 18.109375 38.921875 18.109375 30.90625 
L 18.109375 0 
L 9.078125 0 
L 9.078125 75.984375 
L 18.109375 75.984375 
L 18.109375 46.1875 
Q 21.34375 51.125 25.703125 53.5625 
Q 30.078125 56 35.796875 56 
Q 45.21875 56 50.046875 50.171875 
Q 54.890625 44.34375 54.890625 33.015625 
z
" id="DejaVuSans-104"/>
      <path d="M 9.8125 72.90625 
L 23.09375 72.90625 
L 55.421875 11.921875 
L 55.421875 72.90625 
L 64.984375 72.90625 
L 64.984375 0 
L 51.703125 0 
L 19.390625 60.984375 
L 19.390625 0 
L 9.8125 0 
z
" id="DejaVuSans-78"/>
      <path d="M 34.1875 63.1875 
L 20.796875 26.90625 
L 47.609375 26.90625 
z
M 28.609375 72.90625 
L 39.796875 72.90625 
L 67.578125 0 
L 57.328125 0 
L 50.6875 18.703125 
L 17.828125 18.703125 
L 11.1875 0 
L 0.78125 0 
z
" id="DejaVuSans-65"/>
      <path d="M 10.59375 45.40625 
L 73.1875 45.40625 
L 73.1875 37.203125 
L 10.59375 37.203125 
z
M 10.59375 25.484375 
L 73.1875 25.484375 
L 73.1875 17.1875 
L 10.59375 17.1875 
z
" id="DejaVuSans-61"/>
     </defs>
     <g transform="translate(1123.990625 54.796875)scale(0.2 -0.2)">
      <use xlink:href="#DejaVuSans-97"/>
      <use x="61.279297" xlink:href="#DejaVuSans-110"/>
      <use x="124.658203" xlink:href="#DejaVuSans-97"/>
      <use x="185.9375" xlink:href="#DejaVuSans-108"/>
      <use x="213.720703" xlink:href="#DejaVuSans-121"/>
      <use x="272.900391" xlink:href="#DejaVuSans-116"/>
      <use x="312.109375" xlink:href="#DejaVuSans-105"/>
      <use x="339.892578" xlink:href="#DejaVuSans-99"/>
      <use x="394.873047" xlink:href="#DejaVuSans-32"/>
      <use x="426.660156" xlink:href="#DejaVuSans-99"/>
      <use x="481.640625" xlink:href="#DejaVuSans-117"/>
      <use x="545.019531" xlink:href="#DejaVuSans-116"/>
      <use x="584.228516" xlink:href="#DejaVuSans-111"/>
      <use x="645.410156" xlink:href="#DejaVuSans-102"/>
      <use x="680.615234" xlink:href="#DejaVuSans-102"/>
      <use x="715.820312" xlink:href="#DejaVuSans-32"/>
      <use x="747.607422" xlink:href="#DejaVuSans-119"/>
      <use x="829.394531" xlink:href="#DejaVuSans-105"/>
      <use x="857.177734" xlink:href="#DejaVuSans-116"/>
      <use x="896.386719" xlink:href="#DejaVuSans-104"/>
      <use x="959.765625" xlink:href="#DejaVuSans-32"/>
      <use x="991.552734" xlink:href="#DejaVuSans-78"/>
      <use x="1066.357422" xlink:href="#DejaVuSans-65"/>
      <use x="1134.765625" xlink:href="#DejaVuSans-61"/>
      <use x="1218.554688" xlink:href="#DejaVuSans-48"/>
      <use x="1282.177734" xlink:href="#DejaVuSans-46"/>
      <use x="1313.964844" xlink:href="#DejaVuSans-52"/>
     </g>
    </g>
    <g id="line2d_23">
     <path d="M 1067.990625 77.153125 
L 1107.990625 77.153125 
" style="fill:none;stroke:#e377c2;stroke-linecap:square;stroke-width:1.5;"/>
    </g>
    <g id="line2d_24"/>
    <g id="text_17">
     <!-- normalisation position -->
     <g transform="translate(1123.990625 84.153125)scale(0.2 -0.2)">
      <use xlink:href="#DejaVuSans-110"/>
      <use x="63.378906" xlink:href="#DejaVuSans-111"/>
      <use x="124.560547" xlink:href="#DejaVuSans-114"/>
      <use x="165.658203" xlink:href="#DejaVuSans-109"/>
      <use x="263.070312" xlink:href="#DejaVuSans-97"/>
      <use x="324.349609" xlink:href="#DejaVuSans-108"/>
      <use x="352.132812" xlink:href="#DejaVuSans-105"/>
      <use x="379.916016" xlink:href="#DejaVuSans-115"/>
      <use x="432.015625" xlink:href="#DejaVuSans-97"/>
      <use x="493.294922" xlink:href="#DejaVuSans-116"/>
      <use x="532.503906" xlink:href="#DejaVuSans-105"/>
      <use x="560.287109" xlink:href="#DejaVuSans-111"/>
      <use x="621.46875" xlink:href="#DejaVuSans-110"/>
      <use x="684.847656" xlink:href="#DejaVuSans-32"/>
      <use x="716.634766" xlink:href="#DejaVuSans-112"/>
      <use x="780.111328" xlink:href="#DejaVuSans-111"/>
      <use x="841.292969" xlink:href="#DejaVuSans-115"/>
      <use x="893.392578" xlink:href="#DejaVuSans-105"/>
      <use x="921.175781" xlink:href="#DejaVuSans-116"/>
      <use x="960.384766" xlink:href="#DejaVuSans-105"/>
      <use x="988.167969" xlink:href="#DejaVuSans-111"/>
      <use x="1049.349609" xlink:href="#DejaVuSans-110"/>
     </g>
    </g>
    <g id="line2d_25">
     <path d="M 1067.990625 106.509375 
L 1107.990625 106.509375 
" style="fill:none;stroke:#2ca02c;stroke-linecap:square;stroke-opacity:0.84;stroke-width:1.5;"/>
    </g>
    <g id="line2d_26"/>
    <g id="text_18">
     <!-- 1um colloids at z=1.7mm -->
     <defs>
      <path d="M 45.40625 46.390625 
L 45.40625 75.984375 
L 54.390625 75.984375 
L 54.390625 0 
L 45.40625 0 
L 45.40625 8.203125 
Q 42.578125 3.328125 38.25 0.953125 
Q 33.9375 -1.421875 27.875 -1.421875 
Q 17.96875 -1.421875 11.734375 6.484375 
Q 5.515625 14.40625 5.515625 27.296875 
Q 5.515625 40.1875 11.734375 48.09375 
Q 17.96875 56 27.875 56 
Q 33.9375 56 38.25 53.625 
Q 42.578125 51.265625 45.40625 46.390625 
z
M 14.796875 27.296875 
Q 14.796875 17.390625 18.875 11.75 
Q 22.953125 6.109375 30.078125 6.109375 
Q 37.203125 6.109375 41.296875 11.75 
Q 45.40625 17.390625 45.40625 27.296875 
Q 45.40625 37.203125 41.296875 42.84375 
Q 37.203125 48.484375 30.078125 48.484375 
Q 22.953125 48.484375 18.875 42.84375 
Q 14.796875 37.203125 14.796875 27.296875 
z
" id="DejaVuSans-100"/>
      <path d="M 5.515625 54.6875 
L 48.1875 54.6875 
L 48.1875 46.484375 
L 14.40625 7.171875 
L 48.1875 7.171875 
L 48.1875 0 
L 4.296875 0 
L 4.296875 8.203125 
L 38.09375 47.515625 
L 5.515625 47.515625 
z
" id="DejaVuSans-122"/>
      <path d="M 8.203125 72.90625 
L 55.078125 72.90625 
L 55.078125 68.703125 
L 28.609375 0 
L 18.3125 0 
L 43.21875 64.59375 
L 8.203125 64.59375 
z
" id="DejaVuSans-55"/>
     </defs>
     <g transform="translate(1123.990625 113.509375)scale(0.2 -0.2)">
      <use xlink:href="#DejaVuSans-49"/>
      <use x="63.623047" xlink:href="#DejaVuSans-117"/>
      <use x="127.001953" xlink:href="#DejaVuSans-109"/>
      <use x="224.414062" xlink:href="#DejaVuSans-32"/>
      <use x="256.201172" xlink:href="#DejaVuSans-99"/>
      <use x="311.181641" xlink:href="#DejaVuSans-111"/>
      <use x="372.363281" xlink:href="#DejaVuSans-108"/>
      <use x="400.146484" xlink:href="#DejaVuSans-108"/>
      <use x="427.929688" xlink:href="#DejaVuSans-111"/>
      <use x="489.111328" xlink:href="#DejaVuSans-105"/>
      <use x="516.894531" xlink:href="#DejaVuSans-100"/>
      <use x="580.371094" xlink:href="#DejaVuSans-115"/>
      <use x="632.470703" xlink:href="#DejaVuSans-32"/>
      <use x="664.257812" xlink:href="#DejaVuSans-97"/>
      <use x="725.537109" xlink:href="#DejaVuSans-116"/>
      <use x="764.746094" xlink:href="#DejaVuSans-32"/>
      <use x="796.533203" xlink:href="#DejaVuSans-122"/>
      <use x="849.023438" xlink:href="#DejaVuSans-61"/>
      <use x="932.8125" xlink:href="#DejaVuSans-49"/>
      <use x="996.435547" xlink:href="#DejaVuSans-46"/>
      <use x="1028.222656" xlink:href="#DejaVuSans-55"/>
      <use x="1091.845703" xlink:href="#DejaVuSans-109"/>
      <use x="1189.257812" xlink:href="#DejaVuSans-109"/>
     </g>
    </g>
    <g id="line2d_27">
     <path d="M 1067.990625 135.865625 
L 1107.990625 135.865625 
" style="fill:none;stroke:#d62728;stroke-linecap:square;stroke-opacity:0.84;stroke-width:1.5;"/>
    </g>
    <g id="line2d_28"/>
    <g id="text_19">
     <!-- 0.5um colloids at z=1.7mm -->
     <g transform="translate(1123.990625 142.865625)scale(0.2 -0.2)">
      <use xlink:href="#DejaVuSans-48"/>
      <use x="63.623047" xlink:href="#DejaVuSans-46"/>
      <use x="95.410156" xlink:href="#DejaVuSans-53"/>
      <use x="159.033203" xlink:href="#DejaVuSans-117"/>
      <use x="222.412109" xlink:href="#DejaVuSans-109"/>
      <use x="319.824219" xlink:href="#DejaVuSans-32"/>
      <use x="351.611328" xlink:href="#DejaVuSans-99"/>
      <use x="406.591797" xlink:href="#DejaVuSans-111"/>
      <use x="467.773438" xlink:href="#DejaVuSans-108"/>
      <use x="495.556641" xlink:href="#DejaVuSans-108"/>
      <use x="523.339844" xlink:href="#DejaVuSans-111"/>
      <use x="584.521484" xlink:href="#DejaVuSans-105"/>
      <use x="612.304688" xlink:href="#DejaVuSans-100"/>
      <use x="675.78125" xlink:href="#DejaVuSans-115"/>
      <use x="727.880859" xlink:href="#DejaVuSans-32"/>
      <use x="759.667969" xlink:href="#DejaVuSans-97"/>
      <use x="820.947266" xlink:href="#DejaVuSans-116"/>
      <use x="860.15625" xlink:href="#DejaVuSans-32"/>
      <use x="891.943359" xlink:href="#DejaVuSans-122"/>
      <use x="944.433594" xlink:href="#DejaVuSans-61"/>
      <use x="1028.222656" xlink:href="#DejaVuSans-49"/>
      <use x="1091.845703" xlink:href="#DejaVuSans-46"/>
      <use x="1123.632812" xlink:href="#DejaVuSans-55"/>
      <use x="1187.255859" xlink:href="#DejaVuSans-109"/>
      <use x="1284.667969" xlink:href="#DejaVuSans-109"/>
     </g>
    </g>
    <g id="line2d_29">
     <path d="M 1067.990625 165.221875 
L 1107.990625 165.221875 
" style="fill:none;stroke:#1f77b4;stroke-linecap:square;stroke-opacity:0.84;stroke-width:1.5;"/>
    </g>
    <g id="line2d_30"/>
    <g id="text_20">
     <!-- water at z=1.7mm -->
     <g transform="translate(1123.990625 172.221875)scale(0.2 -0.2)">
      <use xlink:href="#DejaVuSans-119"/>
      <use x="81.787109" xlink:href="#DejaVuSans-97"/>
      <use x="143.066406" xlink:href="#DejaVuSans-116"/>
      <use x="182.275391" xlink:href="#DejaVuSans-101"/>
      <use x="243.798828" xlink:href="#DejaVuSans-114"/>
      <use x="284.912109" xlink:href="#DejaVuSans-32"/>
      <use x="316.699219" xlink:href="#DejaVuSans-97"/>
      <use x="377.978516" xlink:href="#DejaVuSans-116"/>
      <use x="417.1875" xlink:href="#DejaVuSans-32"/>
      <use x="448.974609" xlink:href="#DejaVuSans-122"/>
      <use x="501.464844" xlink:href="#DejaVuSans-61"/>
      <use x="585.253906" xlink:href="#DejaVuSans-49"/>
      <use x="648.876953" xlink:href="#DejaVuSans-46"/>
      <use x="680.664062" xlink:href="#DejaVuSans-55"/>
      <use x="744.287109" xlink:href="#DejaVuSans-109"/>
      <use x="841.699219" xlink:href="#DejaVuSans-109"/>
     </g>
    </g>
    <g id="line2d_31">
     <path d="M 1067.990625 194.578125 
L 1107.990625 194.578125 
" style="fill:none;stroke:#9467bd;stroke-linecap:square;stroke-width:1.5;"/>
    </g>
    <g id="line2d_32"/>
    <g id="text_21">
     <!-- slant edge -->
     <defs>
      <path d="M 45.40625 27.984375 
Q 45.40625 37.75 41.375 43.109375 
Q 37.359375 48.484375 30.078125 48.484375 
Q 22.859375 48.484375 18.828125 43.109375 
Q 14.796875 37.75 14.796875 27.984375 
Q 14.796875 18.265625 18.828125 12.890625 
Q 22.859375 7.515625 30.078125 7.515625 
Q 37.359375 7.515625 41.375 12.890625 
Q 45.40625 18.265625 45.40625 27.984375 
z
M 54.390625 6.78125 
Q 54.390625 -7.171875 48.1875 -13.984375 
Q 42 -20.796875 29.203125 -20.796875 
Q 24.46875 -20.796875 20.265625 -20.09375 
Q 16.0625 -19.390625 12.109375 -17.921875 
L 12.109375 -9.1875 
Q 16.0625 -11.328125 19.921875 -12.34375 
Q 23.78125 -13.375 27.78125 -13.375 
Q 36.625 -13.375 41.015625 -8.765625 
Q 45.40625 -4.15625 45.40625 5.171875 
L 45.40625 9.625 
Q 42.625 4.78125 38.28125 2.390625 
Q 33.9375 0 27.875 0 
Q 17.828125 0 11.671875 7.65625 
Q 5.515625 15.328125 5.515625 27.984375 
Q 5.515625 40.671875 11.671875 48.328125 
Q 17.828125 56 27.875 56 
Q 33.9375 56 38.28125 53.609375 
Q 42.625 51.21875 45.40625 46.390625 
L 45.40625 54.6875 
L 54.390625 54.6875 
z
" id="DejaVuSans-103"/>
     </defs>
     <g transform="translate(1123.990625 201.578125)scale(0.2 -0.2)">
      <use xlink:href="#DejaVuSans-115"/>
      <use x="52.099609" xlink:href="#DejaVuSans-108"/>
      <use x="79.882812" xlink:href="#DejaVuSans-97"/>
      <use x="141.162109" xlink:href="#DejaVuSans-110"/>
      <use x="204.541016" xlink:href="#DejaVuSans-116"/>
      <use x="243.75" xlink:href="#DejaVuSans-32"/>
      <use x="275.537109" xlink:href="#DejaVuSans-101"/>
      <use x="337.060547" xlink:href="#DejaVuSans-100"/>
      <use x="400.537109" xlink:href="#DejaVuSans-103"/>
      <use x="464.013672" xlink:href="#DejaVuSans-101"/>
     </g>
    </g>
    <g id="line2d_33">
     <path d="M 1067.990625 223.934375 
L 1107.990625 223.934375 
" style="fill:none;stroke:#000000;stroke-linecap:square;stroke-width:1.5;"/>
    </g>
    <g id="line2d_34"/>
    <g id="text_22">
     <!-- line pairs -->
     <g transform="translate(1123.990625 230.934375)scale(0.2 -0.2)">
      <use xlink:href="#DejaVuSans-108"/>
      <use x="27.783203" xlink:href="#DejaVuSans-105"/>
      <use x="55.566406" xlink:href="#DejaVuSans-110"/>
      <use x="118.945312" xlink:href="#DejaVuSans-101"/>
      <use x="180.46875" xlink:href="#DejaVuSans-32"/>
      <use x="212.255859" xlink:href="#DejaVuSans-112"/>
      <use x="275.732422" xlink:href="#DejaVuSans-97"/>
      <use x="337.011719" xlink:href="#DejaVuSans-105"/>
      <use x="364.794922" xlink:href="#DejaVuSans-114"/>
      <use x="405.908203" xlink:href="#DejaVuSans-115"/>
     </g>
    </g>
   </g>
  </g>
 </g>
 <defs>
  <clipPath id="pbb0096244e">
   <rect height="619.792" width="1318.6743" x="99.7257" y="21.6"/>
  </clipPath>
 </defs>
</svg>
